<?xml version="1.0" standalone="no"?>
<!DOCTYPE svg PUBLIC "-//W3C//DTD SVG 1.1//EN" "http://www.w3.org/Graphics/SVG/1.1/DTD/svg11.dtd" >
<svg xmlns="http://www.w3.org/2000/svg">
<metadata></metadata>
<defs>
<font id="a_year_without_rainregular" horiz-adv-x="966" >
<font-face units-per-em="2048" ascent="1638" descent="-410" />
<missing-glyph horiz-adv-x="786" />
<glyph horiz-adv-x="2048" />
<glyph horiz-adv-x="2048" />
<glyph unicode="&#xd;" horiz-adv-x="1024" />
<glyph unicode=" "  horiz-adv-x="786" />
<glyph unicode="&#x09;" horiz-adv-x="786" />
<glyph unicode="&#xa0;" horiz-adv-x="786" />
<glyph unicode="!" horiz-adv-x="334" d="M81 93q5 23 20 37t37 19t42 1q14 -12 28 -34t21 -44t5 -42t-16 -28t-45 -1t-81 37q-16 32 -11 55zM104 374q2 118 4 202t5 154t5 137t4 150t4 192t4 265q14 44 35 62t40 17t34 -14t21 -31q-22 -208 -29 -360t-9 -277t-4 -240t-10 -247q-4 -36 -19 -54t-33 -19t-33 15 t-19 48z" />
<glyph unicode="&#x22;" horiz-adv-x="474" d="M54 1404q0 20 11 34t27 19t34 -1t34 -26l106 -356q-14 -34 -34 -45t-54 21zM304 1446q4 48 26 55t43 -4t33 -26t-4 -9l4 -30t11 -74t14 -95t14 -95t11 -74l4 -30q0 -22 -12 -27t-76 11z" />
<glyph unicode="#" horiz-adv-x="2000" d="M72 884q-4 38 18 60t54 33t65 14t51 7q22 4 66 10t100 14t118 16t117 15t99 13t66 8l76 340h76v-330q70 0 121 -5t96 -6t91 6t106 33q4 12 15 44t23 68l23 69l15 45q14 34 20 57t34 23q22 0 35 -10t25 -32q-4 -10 -9 -37t-11 -57t-11 -57t-7 -39q-2 -8 2 -37t4 -37h408 l38 -38q-6 -20 -38 -34t-80 -25t-104 -19t-109 -14t-96 -12t-63 -10q-4 -12 -9 -45t-11 -69t-11 -68t-7 -44q0 -8 1 -29t2 -44t3 -44t2 -29q90 0 177 19t177 19q0 -42 -25 -71t-63 -49t-85 -33t-91 -20t-81 -12t-55 -9q-2 -12 -8 -38t-17 -51t-28 -44t-41 -19q-44 0 -61 7 t-19 20t3 33t5 46q-38 0 -86 4t-98 4t-97 -7t-81 -31q-16 -10 -22 -36l-12 -52t-18 -46t-44 -20q-30 0 -42 20t-13 49t2 58t3 47h-276q0 12 2 22t2 19t4 15q2 8 7 21t11 25t11 21t7 9h228q2 0 7 13t11 31t11 37t7 31q2 14 8 52t12 80t11 80t7 52q-34 32 -60 36t-66 4 q-132 0 -258 -20t-256 -20h-114zM930 506q4 0 24 1t24 1q16 2 59 7t91 11t91 12t61 8q42 102 62 210t20 218q-152 0 -239 -18t-130 -69t-53 -142t-10 -239z" />
<glyph unicode="$" horiz-adv-x="1328" d="M35 350q-1 30 5 62t21 57t47 25q0 -32 7 -95t26 -127t54 -112t91 -48q24 0 36 15t16 37t4 45v39q0 14 3 57t7 101t9 124t9 124t6 102t4 58v38q0 40 -24 77t-54 75t-54 80t-24 94q0 64 24 111t59 86t74 74t68 77t43 94t0 124q4 0 19 2t19 2q48 0 64 -21t15 -53t-10 -67 t-9 -61h142q0 4 -6 36t-7 69t10 67t45 30q18 0 35 -9t23 -29q4 -12 10 -40t12 -59t11 -59t5 -40q12 -4 32 -11t39 -18t32 -25t13 -30q0 -26 -12 -36t-30 -11t-38 3t-36 4v-642q20 -16 69 -57t103 -89t102 -92t66 -62q40 -40 58 -79t18 -85q0 -82 -51 -132t-122 -83t-149 -58 t-132 -61q-14 -10 -24 -40t-21 -61t-27 -56t-40 -25q-30 0 -30 24t4 53t-1 53t-47 24q-8 0 -39 -1t-65 -2t-61 -2l-27 -1q-10 -6 -19 -24t-15 -39t-7 -41t5 -28h-76q10 60 -8 107t-52 86t-77 73t-80 73t-63 83t-26 104q0 12 -1 42zM340 1198q0 -22 1 -40t5 -35t12 -35 t22 -42q32 50 35 97t3 103v100q-44 -26 -61 -66t-17 -82zM450 48h232l24 678l-224 120q-26 -218 -29 -426t-3 -372zM528 990q0 -36 17 -53t41 -29t50 -24t46 -38q22 10 30 22t8 28q6 58 14 121t12 128t1 133t-19 134h-160q-4 -30 -11 -82t-13 -111t-11 -119t-5 -110zM822 42 q40 0 100 22t115 57t95 77t40 82q0 42 -33 88t-81 87t-100 74t-88 51q-28 -134 -38 -268t-10 -270z" />
<glyph unicode="%" horiz-adv-x="1764" d="M118 1092q-16 74 7 156t79 148t140 106t190 32q10 -30 29 -63t47 -51q8 0 26 -1t39 -2t40 -2t27 -1q60 0 113 15t105 32t105 32t111 15v-88l-232 -1420q-34 0 -56 17t-36 42t-19 55t-5 56q0 68 15 157t37 188t49 203t49 203t37 189t15 160v22t-1 34t-2 34t-1 22 l-340 -112q12 -78 -7 -148t-63 -122t-108 -82t-142 -30q-112 16 -172 73t-76 131zM268 1156q0 -22 4 -57t16 -66t35 -51t61 -14q94 16 143 59t49 127q0 60 -22 91t-49 54t-52 48t-31 73q-36 -30 -65 -58t-49 -58t-30 -66t-10 -82zM1224 540q0 34 12 71t32 71t48 61t62 39 q40 16 96 -27t108 -109t91 -135t45 -107q8 -52 -17 -94t-66 -72t-90 -46t-91 -16q-82 0 -129 29t-69 79t-27 116t-5 140zM1333 401q7 -39 26 -61t40 -33t43 -15t34 -4q18 0 39 2t39 9t31 23t19 44q6 36 -16 84t-58 91t-78 73t-74 30q-32 -86 -42 -145t-3 -98z" />
<glyph unicode="&#x26;" horiz-adv-x="1000" d="M18 998q0 96 56 161t137 106t173 63t166 34q10 0 24 -14t14 -24q0 -4 -4 -16t-10 -24t-13 -22t-11 -12q-54 14 -125 3t-136 -44t-110 -86t-45 -121q0 -34 26 -59t62 -41t74 -24t64 -8q78 0 152 21t152 21q8 0 37 -1t37 -1q6 -38 -23 -60t-76 -39t-102 -34t-103 -46 t-80 -76t-32 -123q0 -36 6 -70t21 -61t40 -44t65 -17q46 0 118 8t139 30t115 62t48 104q30 0 62 -17t32 -51q0 -58 -61 -103t-143 -77t-164 -49t-126 -17q-132 0 -200 74t-68 194v37t1 47t2 42t1 22t7 20t14 36t13 36t4 20q-6 28 -43 49t-79 46t-75 58t-33 87zM166 1526 q0 28 19 42t45 20t52 6h42q0 -20 -3 -43t-12 -42t-24 -32t-41 -13q-28 0 -53 13t-25 49zM528 28q4 20 18 28t32 11t35 2t29 -1h37t37 -2q-4 -12 -12 -32t-20 -39t-28 -32t-34 -13q-34 0 -54 25t-40 53z" />
<glyph unicode="'" horiz-adv-x="314" d="M56 1316q0 16 16 25t36 10t39 -5t29 -20q44 -58 63 -114t17 -106t-21 -92t-53 -68q-48 -14 -71 -4t-23 30q30 48 41 89t6 81t-26 83t-53 91z" />
<glyph unicode="(" horiz-adv-x="698" d="M96 624q0 26 8 111t29 197t59 236t97 230t142 178t197 82q22 0 45 -4t33 -30q-124 -74 -212 -164t-144 -207t-82 -263t-24 -330q0 -112 9 -223t41 -215t93 -197t165 -169q0 -8 -14 -21t-20 -13q-84 0 -147 48t-110 124t-79 168t-51 182t-27 165t-8 115z" />
<glyph unicode=")" horiz-adv-x="724" d="M12 1604q-16 40 12 61t66 1q150 -90 260 -207t183 -250t109 -275t36 -282q0 -54 -15 -130t-42 -161t-68 -172t-94 -161t-116 -130t-137 -78q-6 -2 -18 0t-24 7t-22 11t-12 12q88 116 166 217t137 204t93 216t34 253q0 138 -43 251t-118 214t-174 197t-213 202z" />
<glyph unicode="*" horiz-adv-x="1054" d="M80 1214v54q56 0 111 -32t105 -76t92 -92l70 -80q-24 34 -30 102t-2 140t13 132t19 78h94l-26 -334q6 26 18 70t29 87t35 75t36 32q28 0 54 -13t26 -49q0 -2 -1 -9t-1 -9q-16 -26 -32 -65t-31 -81t-28 -83t-23 -73q10 0 38 -1t38 -1q44 0 84 8t81 17t82 17t87 8 q0 -40 -25 -68t-65 -46t-88 -27t-93 -13t-83 -5t-56 -3l152 -188q2 4 13 11t23 13t23 10t15 4q12 0 22 -21t17 -48t11 -52t4 -33q0 -58 -27 -60t-72 31t-102 91t-119 118q-2 0 4 -22t16 -53t22 -68t22 -70t17 -55t5 -24q-4 -6 -16 -11t-25 -9t-25 -8t-18 -8q-40 26 -58 69 t-24 90t-2 95t10 86q-34 -12 -54 -39t-30 -60t-13 -67t-3 -60h-142q0 50 12 93t27 84t27 84t12 93q-16 0 -47 -8t-64 -12t-62 3t-41 39q-4 6 -6 16l-4 20t-2 22h162z" />
<glyph unicode="+" horiz-adv-x="1000" d="M54 926q0 16 8 36t32 20h340v400q60 0 90 -46t42 -107t14 -121t4 -88l356 -2v-76q-30 -8 -78 -18t-102 -19t-106 -19t-88 -18v-414l-132 38v358h-340q-4 0 -18 22t-20 34q0 2 -1 9t-1 11z" />
<glyph unicode="," horiz-adv-x="286" d="M28 -146q64 46 84 103t26 108t13 86t45 37q36 -10 51 -66t5 -121t-45 -123t-99 -72q-28 -4 -51 11t-29 37z" />
<glyph unicode="-" horiz-adv-x="874" d="M56 804q0 18 11 26t26 11t29 3h22l548 -46q32 -6 58 -12t46 -18t31 -34t11 -58q-102 12 -167 19t-111 10t-84 4t-86 3t-118 5t-178 11q-4 2 -11 13t-13 23t-10 23t-4 17z" />
<glyph unicode="." horiz-adv-x="284" d="M60 164q14 0 42 1t56 -5t49 -21t21 -45q0 -14 -3 -31t-9 -32t-17 -25t-29 -10q-30 0 -50 18t-34 44t-20 55t-6 51z" />
<glyph unicode="/" horiz-adv-x="986" d="M16 56q0 4 1 11t1 9l848 1464q30 -16 58 -39t24 -61l-816 -1440q0 -2 -13 -4t-19 -2q-30 0 -57 14t-27 48z" />
<glyph unicode="0" horiz-adv-x="1076" d="M52 482q0 66 14 170t44 221t75 235t106 213t139 155t174 60q82 0 143 -41t106 -109t74 -153t46 -173t24 -172t7 -146q2 -168 -44 -308t-131 -239t-206 -151t-267 -46q-88 0 -146 51t-93 126t-50 158t-15 149zM204 480q0 -62 7 -122t30 -106t65 -75t112 -29q102 8 194 63 t158 138t99 184t19 201q-16 116 -26 219t-37 188t-81 148t-156 99q-44 0 -89 -56t-88 -143t-80 -194t-66 -208t-45 -184t-16 -123z" />
<glyph unicode="1" horiz-adv-x="830" d="M14 1014v108q22 2 75 17t111 35t110 38t74 24q68 22 116 78t85 114t67 103t60 45q34 0 47 -24t9 -54l-298 -1460q-2 -10 -30 -24t-44 -14q-10 0 -23 4t-25 10t-20 13t-8 11l222 1120q-54 -46 -118 -75t-133 -44t-140 -20t-137 -5z" />
<glyph unicode="2" horiz-adv-x="1000" d="M9 43q7 21 29 33q46 18 77 32t59 29t59 33t77 46q66 88 137 185t132 202t105 216t56 227q6 52 -18 116t-64 115t-89 78t-95 9q-34 0 -72 -24t-71 -55t-60 -63t-41 -48q-10 6 -27 19t-32 28t-22 33t5 34q74 80 124 125t85 68t59 30t48 11q78 26 159 -9t144 -110t96 -178 t19 -215q-22 -164 -76 -290t-117 -227t-126 -182t-103 -155q10 -16 57 -33t116 -29t154 -15t175 9l-10 -114q-48 -36 -130 -44t-174 4t-182 41t-152 69q-32 0 -60 -15t-54 -33t-53 -33t-59 -15q-34 0 -55 16t-29 37t-1 42z" />
<glyph unicode="3" horiz-adv-x="944" d="M84 226q0 24 17 40t41 16q36 0 56 -30t38 -65t43 -65t71 -30q86 -6 163 33t135 102t91 142t31 151t-45 128t-137 76q-52 0 -98 -21t-96 -21q-24 0 -40 17t-16 43q0 18 23 55t57 86t73 108t73 122t57 127t23 124q-14 44 -37 48t-53 -15t-66 -53t-74 -64t-79 -49t-79 -7 q0 66 38 125t95 104t125 72t128 27q78 -12 117 -61t48 -116t-4 -143t-40 -144t-61 -117t-64 -63q100 -18 162 -74t92 -136t28 -175t-31 -189t-83 -178t-129 -143t-170 -84t-205 1q-48 0 -89 27t-69 70t-44 95t-16 104z" />
<glyph unicode="4" horiz-adv-x="1024" d="M31 844q1 2 1 4q0 42 11 66t29 42t41 34t47 40q22 20 41 68t36 107t34 122t33 115t31 86t31 34q42 0 60 -29t18 -63q0 -64 -18 -128t-40 -126t-40 -123t-18 -117q0 -22 30 -38t78 -26t106 -16t113 -8t100 -3t67 -1l28 576q-4 8 17 17t48 12t48 -3t19 -26q2 -46 3 -130 t-1 -193t-4 -232t-7 -246t-10 -238t-11 -204t-14 -145t-16 -64q-12 -18 -43 -21t-57 14t-36 53t18 96l-2 572q-208 30 -346 50t-223 33t-128 21t-59 12t-15 6z" />
<glyph unicode="5" horiz-adv-x="1048" d="M70 94q0 4 1 24t2 43t2 42t1 23q18 -28 45 -50t60 -36t68 -21t69 -7q110 0 195 44t143 117t89 166t31 191q0 32 -17 88t-49 110t-78 90t-104 26q-54 -10 -94 -38t-70 -66t-53 -80t-44 -77t-44 -58t-53 -23q-22 0 -39 19t-17 59q4 58 7 134t5 155t3 158t5 146t9 115t15 68 l704 98q32 6 61 -4t52 -30t36 -47t13 -57q-86 0 -179 -8t-187 -21t-185 -31t-173 -36q-8 -84 -9 -136t1 -85t6 -50t4 -31q148 54 257 47t184 -58t116 -136t51 -186t-10 -208t-67 -201t-120 -167t-170 -105t-216 -14t-257 104z" />
<glyph unicode="6" horiz-adv-x="866" d="M36 320q0 188 38 363t99 329t138 281t157 219q14 26 41 35t51 6t39 -17t5 -34q-26 -40 -66 -89t-92 -139t-115 -236t-131 -376q-10 -34 -18 -82t-12 -102t0 -109t19 -100t42 -78t71 -41q-10 36 -5 89t22 112t45 118t63 106t75 77t82 30q46 0 89 -18t76 -49t54 -73t27 -90 q12 -92 -38 -175t-130 -145t-174 -99t-172 -37q-62 0 -114 30t-89 77t-57 105t-20 112zM454 226q32 -44 72 -31t75 52t58 89t21 80q0 12 -3 31t-10 37t-18 32t-25 16q-40 0 -71 -39t-53 -90t-34 -102t-12 -75z" />
<glyph unicode="7" horiz-adv-x="816" d="M42 1456q6 18 25 31t47 13q36 0 68 -7t65 -15t67 -15t72 -7q50 0 88 2t75 10t77 24t94 44q10 8 24 -3t25 -33t15 -53t-6 -63q-44 -146 -70 -300t-50 -317t-53 -336t-77 -355q-2 -8 -8 -21t-12 -25t-11 -21t-7 -9q-42 -10 -65 -6t-34 17t-14 33t-3 42q102 272 155 588 t39 636q-36 2 -99 4t-133 10t-139 22t-119 38q-26 14 -34 34t-2 38z" />
<glyph unicode="8" horiz-adv-x="880" d="M16 260q-6 144 61 259t183 223q-58 36 -95 63t-59 55t-31 63t-11 89q-12 108 23 203t98 166t144 112t159 39q86 2 151 -45t110 -115t68 -143t25 -131q2 -48 -17 -91t-47 -80t-59 -68t-55 -53q52 -50 86 -124t45 -156t-1 -167t-51 -158t-106 -128t-165 -77q-96 -10 -179 1 t-144 44t-96 88t-37 131zM156 256q14 -70 71 -120t167 -58q90 12 145 53t83 99t32 126t-7 136t-36 127t-55 99h-6h-6q-2 0 -2 2q-92 -2 -169 -49t-130 -116t-77 -149t-10 -150zM172 1030q2 -36 12 -72t33 -65t60 -47t91 -18q72 2 133 24t105 58t68 84t22 102q0 24 -14 73 t-38 97t-56 84t-70 36q-78 -2 -142 -38t-110 -89t-71 -114t-23 -115z" />
<glyph unicode="9" horiz-adv-x="938" d="M30 922q8 100 51 200t112 183t157 140t184 72t195 -21t189 -138q0 -198 -7 -364t-20 -323t-32 -316t-43 -341q-12 -34 -30 -45t-38 -7t-40 20t-32 38q4 42 11 108t15 145t16 165t15 164t11 143t4 105q-68 -38 -119 -69t-97 -52t-94 -32t-108 -11q-42 0 -94 15t-98 45 t-77 74t-31 102zM182 962q12 -62 56 -92t104 -33t128 21t129 71t106 115t61 154q0 2 1 9t1 11q0 38 -20 70t-50 55t-66 36t-70 13q-58 0 -125 -46t-124 -112t-94 -141t-37 -131z" />
<glyph unicode=":" horiz-adv-x="320" d="M68 956q0 36 30 66t66 30q30 0 45 -20t20 -48t5 -56v-42h-43t-55 5t-48 20t-20 45zM70 296q22 46 48 63t68 17q34 0 53 -15t19 -65q0 -78 -54 -78q-38 0 -76 23t-58 55z" />
<glyph unicode=";" horiz-adv-x="320" d="M34 -276q30 68 43 148t29 141t47 87t95 -14q-10 -34 -16 -100t-14 -132t-23 -116t-43 -48q-12 0 -31 -1t-37 0t-32 9t-18 26zM52 631q-12 25 0 54t41 52t59 21q34 0 54 -13t20 -65q0 -12 -17 -25t-39 -25q-24 -14 -56 -26q-50 2 -62 27z" />
<glyph unicode="&#x3c;" horiz-adv-x="1094" d="M34 424l9 9l21 21l25 25t21 19q24 20 74 62t113 94t133 110t133 110t113 92t74 60q40 32 83 40t91 8q0 -50 -37 -103t-95 -108t-130 -109t-142 -106t-129 -100t-93 -88h604q4 4 14 11t22 13t23 10t17 4q18 0 26 -13t11 -29t3 -32v-24q0 -46 -20 -68t-74 -22 q-38 12 -114 14t-170 1t-195 -1t-187 9t-148 30t-76 61z" />
<glyph unicode="=" horiz-adv-x="812" d="M40 763q-6 23 3 45t29 41t42 27q20 2 61 5t93 6t109 8t110 8t94 6t61 5h22q34 0 46 -25t12 -53q0 -24 -11 -38t-28 -21t-38 -9t-41 -4t-61 -5t-94 -6t-110 -8t-109 -8t-93 -6t-61 -5q-30 14 -36 37zM77 460q19 30 69 45t123 20t151 5t151 1t127 9q30 -10 36 -32t6 -46 q0 -30 -43 -47t-109 -26t-145 -12t-151 -3t-128 2t-76 2q-30 52 -11 82z" />
<glyph unicode="&#x3e;" horiz-adv-x="1056" d="M54 1076q0 42 32 51t66 9q42 0 82 -12t79 -30t79 -39t80 -37q18 -6 56 -18t86 -27t102 -31t102 -31t87 -27t57 -16q54 -40 39 -91t-73 -108t-145 -121t-179 -131t-175 -135t-133 -136q-46 0 -75 15t-29 67v29t4 11t12 10t24 24q30 40 83 86t113 94t121 95t111 88t81 74 t31 53l-678 226q-40 14 -40 58z" />
<glyph unicode="?" horiz-adv-x="918" d="M44 1130q30 88 89 160t134 124t158 82t160 36t143 -14t105 -69t44 -128t-37 -191q-48 -122 -126 -215t-157 -159t-143 -105t-84 -51q-38 0 -53 15t-23 61q174 110 286 235t162 234t39 186t-81 91t-200 -52t-318 -240q-38 -28 -61 -25t-37 25zM302 150q2 38 23 54t47 13 t49 -23t27 -56q6 -18 -13 -47t-45 -41t-52 6t-36 94z" />
<glyph unicode="@" horiz-adv-x="1660" d="M72 422q0 126 24 262t73 267t123 249t173 207t225 141t280 52q140 0 254 -47t195 -131t126 -199t45 -251q0 -52 -7 -116t-24 -130t-44 -128t-67 -110t-93 -77t-121 -29q-50 0 -101 10t-96 33t-80 60t-51 91q-52 -34 -83 -91t-63 -113t-75 -96t-119 -40q-88 0 -140 58 t-52 142q0 70 12 154t40 167t71 155t107 118q30 30 76 50t101 29t116 8t123 -11q-2 -20 -3 -68t-1 -102t1 -103t3 -67q2 -34 15 -79t36 -86t57 -70t80 -29q46 -8 96 18t86 99t51 200t-7 323q0 78 -43 136t-106 95t-134 56t-129 19q-192 0 -347 -86t-263 -224t-166 -314 t-58 -356q0 -122 21 -215t70 -156t133 -96t210 -33q150 0 270 43t216 108t171 141t133 141t101 108t79 43q0 -116 -46 -213t-122 -174t-174 -135t-205 -97t-214 -58t-199 -19q-156 0 -263 31t-173 99t-95 175t-29 261zM516 372q56 0 101 29t81 76t63 106t47 120t35 117 t25 96q-10 22 -23 31t-33 9q-64 0 -110 -33t-79 -86t-54 -118t-33 -130t-16 -123t-4 -94z" />
<glyph unicode="A" horiz-adv-x="994" d="M40 -34q18 48 42 140t51 190t51 184t42 124q-4 12 -16 15t-25 7t-24 14t-13 36q0 32 14 52t36 33t49 20t55 11q32 116 59 191t52 142t51 141t56 190q8 14 31 41t52 50t58 33q10 3 18 3q17 0 31 -13l120 -702q8 6 29 13t45 13t46 10t32 2q6 -2 18 -11t24 -21t22 -24 t10 -20q-16 -24 -44 -42t-59 -32t-64 -23t-59 -17q36 -176 43 -369t7 -369q-58 0 -92 39t-52 100t-24 139t-9 156t-7 149t-16 119q-16 0 -53 -5t-79 -11t-80 -13t-52 -9q-2 0 -6 -6t-13 -27t-25 -63t-40 -117t-59 -188t-83 -275h-150zM454 792l226 38v16q-4 38 -13 101 t-20 131t-22 132t-15 104q-58 -190 -90 -295t-47 -155t-17 -61z" />
<glyph unicode="B" horiz-adv-x="1264" d="M78 1338q0 54 27 91t70 61t98 36t110 17t105 5h86q46 0 92 -7t84 -28t61 -58t23 -97q-4 -56 -19 -107t-36 -94t-43 -78t-38 -61q60 -38 119 -60t114 -42t103 -41t83 -57t55 -91t20 -141q0 -134 -48 -243t-131 -186t-196 -119t-243 -42q-30 0 -100 2t-147 9t-144 20 t-89 33v53t-1 87t-1 87v53q0 132 4 233t10 197t10 197t4 233q0 32 -7 49t-14 30t-14 25t-7 34zM240 757q0 -53 1 -117t1 -150v-67t1 -103t1 -102v-68q8 66 44 74q12 3 26 3q27 0 60 -11q50 -16 108 -41t110 -27q100 0 188 26t154 80t104 137t38 195q0 80 -42 129t-104 76 t-136 35t-136 8q-70 0 -147 -16t-139 -16q-71 4 -71 45q0 34 39 71q24 8 49 12t51 13t53 29t57 61t64 110t72 177q0 50 -32 76t-78 32q-16 2 -33 2q-32 0 -67 -7q-54 -11 -100 -36t-77 -62t-31 -81q-10 -90 -15 -158t-8 -123t-4 -104t-1 -102z" />
<glyph unicode="C" horiz-adv-x="1062" d="M48 708q0 148 50 291t127 259t171 192t183 87q13 2 25 2q74 0 137 -57q73 -66 107 -234q-4 0 -18 2t-31 5t-31 6t-18 5q-62 102 -128 119q-19 5 -38 5q-46 0 -91 -29q-63 -41 -118 -125t-95 -182t-61 -195q-16 -75 -16 -133q0 -17 1 -32q4 -44 8 -101t15 -120t30 -126 t52 -115t81 -89t118 -49q66 0 120 36t105 80t102 80t111 36q14 4 24 -2t15 -16q4 -7 4 -15q0 -3 -1 -7q-2 -12 -12 -18q-50 -54 -100 -110t-106 -101t-120 -74t-142 -29q-84 0 -151 37t-118 97t-87 139t-59 162t-34 166t-11 153z" />
<glyph unicode="D" horiz-adv-x="1202" d="M58 1001q0 157 1 247t2 137t3 63t2 26q0 34 26 52t66 26q36 7 77 7h11q48 -1 92 -5t76 -8t42 -4q156 -16 287 -69t226 -145t148 -222t53 -298q-8 -104 -60 -214t-135 -210t-190 -183t-227 -134t-244 -62q-25 -2 -49 -2q-98 0 -193 35q-8 336 -11 571t-3 392zM214 1404 l8 -1254h38q72 0 159 27t175 74t170 111t146 138t103 153t39 159q0 48 -15 118t-52 144t-98 143t-154 119t-221 71q-60 10 -129 10q-78 0 -169 -13z" />
<glyph unicode="E" horiz-adv-x="1078" d="M56 114l16 1312q4 18 67 33t158 28t207 23t214 17t179 11t103 4q20 0 44 -2t43 -9t32 -22t13 -41q0 -40 -38 -61t-102 -30t-145 -9t-167 1t-170 1t-153 -9t-115 -28t-56 -57q6 -24 4 -56t-6 -69t-6 -79v-17q0 -35 6 -73q43 -3 97 -3h28q71 1 147 3t151 5t135 5 q0 -62 -19 -96t-95 -56q-28 -6 -90 -8t-132 -2t-132 -1t-90 -3q2 -84 4 -177q1 -46 1 -91.5t-1 -88.5q-2 -87 -7 -160t-15 -119q35 3 81 4q11 0 23 -1q60 -1 128 -4t140 -4h47q46 0 90 1q65 2 120 11t91 29q40 0 58 -14t19 -37t-10 -49t-29 -50l-754 -76h-5q-14 0 -32 9 q-21 11 -39 29t-30 38q-9 15 -9 29q0 5 1 9z" />
<glyph unicode="F" horiz-adv-x="836" d="M31 1391q-2 9 -2 18q0 16 6 31q9 24 28 47t39 45q44 -3 90 -3q39 0 79 2q89 5 178 15t174 19t157 9q28 0 51 -12t23 -46q0 -28 -22 -46t-60 -30q-42 -14 -101 -21t-121 -10t-122 -4t-108 -3t-77 -7t-29 -15l10 -544q53 -9 118 -9h13q73 1 146 13t141 35t116 57 q24 0 37 -31t13 -55q0 -36 -43 -63t-108 -48t-141 -35t-141 -25t-108 -20t-43 -17l8 -638q-34 -18 -66 -24q-5 -1 -11 -1q-27 0 -55 25l5 175t5 228q1 82 1 168v88q-1 133 -5 259t-14 236t-28 188q-28 24 -33 49z" />
<glyph unicode="G" horiz-adv-x="1208" d="M48 532q-6 43 -6 91q0 58 9 123q17 118 62 238t114 229t159 187t196 115q64 22 134 22q45 0 92 -9q56 -18 86 -44t35 -51t-16 -44t-69 -23q-4 0 -52 4q-12 1 -25 1q-41 0 -93 -9q-70 -12 -151 -49t-153 -121q-52 -52 -86 -123t-53 -151t-27 -162t-8 -154q0 -106 20 -193 t68 -148t126 -95t194 -34q60 0 130 5t128 26t97 65t39 122v66t-7 67t-27 52t-62 21q-50 0 -98 -13t-94 -28t-94 -28t-98 -13q-44 0 -70 15q-23 13 -23 51q0 6 1 12q40 12 121 37t171 51t171 46t121 20q24 0 55 -3t39 -39q14 -84 25 -180t17 -195q5 -85 5 -168v-28 q-1 -97 -9 -183q-41 -26 -67 -26h-4q-27 2 -43 28t-24 74t-12 112q-46 -30 -96 -46t-102 -23t-106 -8t-106 -1q-106 0 -203 37t-171 104t-117 161t-43 210z" />
<glyph unicode="H" horiz-adv-x="1022" d="M60 14l56 1540q4 0 19 2t19 2q8 0 21 -1t25 -5t20 -12t8 -24v-642h454q44 0 72 24t44 60t24 75t10 69q2 16 5 48t6 73t8 86t8 86t6 73t5 48q4 0 19 2t19 2q78 0 78 -74q0 -158 -13 -338t-26 -365t-22 -366q-5 -96 -5 -185q0 -79 4 -154q-4 -4 -14 -11t-22 -13t-23 -10 t-17 -4q-24 0 -39 28t-23 64t-11 70t-3 46q0 50 2 123t5 151t5 152t2 126q-4 0 -15 1t-15 1q-130 -16 -260 -23t-268 -29l-18 -584q32 -10 36 -30t4 -44q0 -78 -74 -78q-10 0 -30 1t-39 6t-33 13t-14 20z" />
<glyph unicode="I" horiz-adv-x="1310" d="M47 1275q-2 3 -2 7q0 15 31 38q140 40 269 81t257 74t259 54t277 21q22 0 54 -17t42 -57q-28 -42 -76 -59t-103 -21t-112 -4t-104 -7t-81 -29t-40 -72q-12 -142 -21 -276t-13 -267q-3 -106 -3 -214v-54q1 -135 7 -275q40 0 95 1t116 4t123 9t114 16h40t51 -4t43 -16 t18 -36q0 -38 -42 -58q-30 -18 -115 -33t-194 -29t-229 -24t-222 -18t-173 -13t-81 -5q-60 6 -87 21t-31 34t9 38t30 34t31 22t14 3l292 44q32 138 48 277t23 281t7 285t-2 289q-66 -18 -124 -33t-115 -26t-118 -16q-44 -4 -92 -4q-19 0 -39 1q-22 16 -31 33z" />
<glyph unicode="J" horiz-adv-x="898" d="M-17 145q-2 7 -2 14q0 27 36 44q20 9 48 9q35 0 81 -14q64 -32 121 -35h9q52 0 100 31q30 42 49 130t31 199t17 235t6 239v74q0 72 -1 135q-2 94 -2 146q-16 12 -70 17t-119 9t-124 10t-83 20q0 26 2 51t10 45t26 33t48 13q28 -8 99 -15t164 -12t198 -9t203 -5h64 q61 0 116 1q82 2 128 8q22 -10 31 -23t9 -33q0 -10 -5 -24t-12 -28t-17 -25t-22 -13l-500 -14q-26 -92 -30 -229q-3 -110 -3 -229v-60v-61q0 -121 -3 -240q-4 -149 -30 -266t-85 -185q-50 -58 -137 -58q-16 0 -32 2q-156 4 -232 40t-87 73z" />
<glyph unicode="K" horiz-adv-x="960" d="M20 14q8 122 18 230t17 213t12 215q4 79 4 166q0 35 -1 72q-2 128 -12 280t-28 342q14 28 39 35t50 3t43 -16t18 -22l20 -682q78 16 160 89t158 176t139 220t101 223q24 25 47 25q10 0 20 -5q33 -16 43 -70q-14 -72 -56 -155t-99 -165t-123 -160t-129 -140t-117 -105 t-88 -55q74 -66 171 -145t193 -165t179 -176t129 -174q1 -7 1 -15q0 -14 -5 -28q-8 -21 -25 -31t-40 -7t-47 27q-60 64 -133 149t-154 171t-165 162t-168 122l-56 -612q4 -10 -12 -21t-38 -14q-6 -1 -12 -1q-16 0 -30 6q-20 8 -24 38z" />
<glyph unicode="L" horiz-adv-x="768" d="M54 45q-11 10 -11 26q0 18 13 43q10 158 15 332t5 348t-5 341t-17 313q-1 4 -1 8q0 23 20 45q23 25 54 35q15 5 29 5q15 0 30 -6q28 -11 38 -53q14 -90 14 -234t-6 -319t-17 -372t-21 -395l476 2q30 2 49 -21t24 -52q2 -10 2 -19q0 -19 -7 -37q-10 -27 -40 -35 q-56 22 -132 25q-38 2 -77 1.5t-79 -1.5q-80 -3 -154 -7q-33 -2 -62 -2q-36 0 -65 3q-53 5 -75 26z" />
<glyph unicode="M" horiz-adv-x="1394" d="M58 72v22q2 46 10 147t18 229t20 269t20 269t17 228t11 148q-6 30 2 46t23 23t34 9t35 2q8 0 29 -1t27 -3q42 -92 79 -181t89 -158t127 -111t195 -42q76 0 129 44t93 110t71 142t62 142t68 110t89 44q44 0 60 -58q-28 -126 -35 -262q-5 -95 -5 -191q0 -41 1 -83 q3 -138 9 -270t6 -252t-11 -220t-45 -172q-30 -32 -56 -41q-12 -4 -22 -4q-13 0 -23 6q-19 11 -29 41q-8 25 -8 61v15q16 136 28 261t21 248t12 250q2 76 2 158q0 54 -1 111q-68 -136 -174 -220t-260 -84q-66 0 -141 13t-142 44t-118 82t-71 127l-96 -1026q-4 -52 -20 -65 t-50 -13q-28 0 -54 11t-26 45z" />
<glyph unicode="N" horiz-adv-x="1166" d="M69 1169q1 95 9 146t25 68t49 17q24 0 44 -5t30 -37q56 -108 128 -255t158 -302t181 -301t195 -250l104 1216q20 54 46 70q23 14 45 14h5q24 -2 41 -11l17 -9q-10 -28 -16 -59t-11 -87t-12 -148t-18 -240t-28 -363t-41 -519q-4 -46 -42 -63t-72 -17q-56 0 -86 31t-66 85 l-546 868v-980q0 -14 -12 -22t-27 -12t-31 -5t-24 -1q-4 0 -19 1t-19 1q1 125 1 236q0 166 -2 301q-3 225 -5 381q-1 104 -1 181v70z" />
<glyph unicode="O" horiz-adv-x="1040" d="M52 482q0 66 14 169t42 219t72 233t105 210t138 152t173 59q82 0 144 -40t107 -106t75 -150t48 -171t26 -170t8 -145q0 -132 -46 -265t-131 -239t-205 -173t-266 -67q-88 0 -146 51t-93 126t-50 158t-15 149zM204 480q0 -62 7 -122t30 -106t65 -75t112 -29q94 2 174 46 t139 122t91 185q30 101 30 220v15q0 58 -2 128t-12 140t-30 136t-56 117t-91 82t-133 31q-44 0 -85 -55t-77 -140t-66 -189t-51 -203t-33 -181t-12 -122z" />
<glyph unicode="P" horiz-adv-x="1120" d="M62 1338q0 42 35 70t89 48t119 31t126 17t108 7t67 1q66 0 148 -13t154 -45t121 -86t49 -134q0 -92 -36 -164t-96 -128t-138 -96t-162 -66t-169 -42t-157 -22q0 -46 -2 -131t-5 -183t-11 -196t-20 -168q-14 -28 -36 -33q-8 -2 -16 -2l-28 6q-22 9 -39 27t-23 38v1132 q-24 24 -49 60t-29 72zM320 860q44 0 109 7t136 23t142 42t128 64t92 91t35 121q0 58 -47 95t-109 58t-126 29t-96 8q-24 0 -68 -1t-88 -8t-76 -23t-32 -46v-460z" />
<glyph unicode="Q" horiz-adv-x="1208" d="M53 806q9 120 38 231t78 209t118 168t156 107q72 30 157 30q19 0 38 -1q118 0 216 -81t168 -210t108 -289q34 -145 34 -288v-30q-4 -158 -53 -297t-151 -225q0 -48 16 -87t26 -87q0 -58 -28 -71t-68 -13q-44 0 -58 25t-22 55t-19 55t-49 25q-58 0 -114 -20t-114 -20 q-126 0 -215 45t-147 124t-85 185t-27 226q-7 65 -7 132q0 51 4 102zM187 701v-10q0 -110 20 -212q21 -107 64 -189t109 -132t154 -50q14 4 50 11t71 17t61 21t22 25q0 52 -24 98t-54 91t-54 91t-24 98q0 28 13 52t47 24q22 0 33 -8t25 -32q8 -16 34 -67t55 -109t54 -109 t33 -69q62 52 97 134t49 178q9 61 9 126q0 37 -3 75q-8 105 -35 206t-70 190t-101 152t-129 96q-50 23 -105 23q-24 0 -48 -4q-86 -32 -151 -104t-110 -170t-68 -213t-24 -230z" />
<glyph unicode="R" horiz-adv-x="1132" d="M36 1322q0 19 20 36q38 60 114 106t170 72t197 31q21 1 42 1q80 0 154 -15q93 -19 165 -66t106 -123q0 -76 -30 -143t-81 -126t-115 -109t-131 -92t-133 -77t-118 -63q0 -10 36 -38t93 -65t126 -78t133 -78t115 -67t75 -42q80 -38 109 -59t29 -34t-18 -24t-32 -29 q-114 0 -203 31t-169 79t-159 105t-173 111q-8 -54 -12 -125t-9 -142t-14 -136t-27 -109t-50 -58q-10 -4 -22 -4q-26 0 -60 20l46 954q0 32 -1 76t-5 89t-12 86t-22 67q-33 -15 -59 -15h-9q-30 3 -47 16q-19 14 -19 37zM358 906q72 18 158 58t161 97t125 129t50 158 q-34 56 -96 79t-133 23t-142 -17t-123 -37v-490z" />
<glyph unicode="S" horiz-adv-x="950" d="M72 424q0 40 7 76t25 63t48 42t78 15q0 -30 -7 -58t-15 -55t-15 -56t-7 -59q0 -58 27 -110t71 -87t98 -49q25 -7 50 -6q28 0 56 8q114 24 163 67t51 101v6q0 56 -34 122q-36 70 -90 148t-117 162t-116 168t-88 166q-31 74 -31 142v16q0 86 61 142t148 88t182 45t163 13 q28 0 51 -12t23 -46t-35 -47t-89 -19t-115 -12t-115 -24t-89 -55t-35 -107q0 -20 8 -49t48 -99t124 -197t236 -339q48 -92 50 -185v-9q0 -88 -39 -159q-41 -75 -121 -124t-194 -51q-20 -2 -39 -2q-69 0 -130 28q-79 36 -136 99t-87 143q-25 67 -25 131q0 12 1 25z" />
<glyph unicode="T" d="M36 1452q0 46 35 72t75 26q102 0 200 -21t200 -21q100 0 172 3t137 7t135 7t166 3q0 -64 -22 -98t-67 -44t-109 -20q-30 -6 -83 -6t-112 1t-113 1t-84 -4q-18 -68 -31 -167t-21 -214t-13 -240t-8 -244t-5 -224t-4 -183q6 -16 -5 -43t-32 -42q-14 -10 -32 -10q-8 0 -18 2 q-29 7 -57 59q6 166 16 327t17 322t10 324q1 44 1 89q0 120 -6 244q-10 2 -39 5t-67 6t-80 8t-76 15t-57 24t-23 36z" />
<glyph unicode="U" horiz-adv-x="1056" d="M60 952q-1 78 -1 154t1 149t1 138t-1 121q6 20 21 22t34 -3t39 -13t36 -10q12 -84 12 -207t-2 -262q-1 -70 -1 -140.5t1 -141.5q2 -143 19 -263t53 -206t103 -114q26 -11 56 -11q49 0 112 28q101 45 249 185q-8 130 -13 276q-3 81 -3 164q0 66 2 134q4 152 24 303t62 289 q34 0 66 1h2q31 0 46 -39q-30 -124 -46 -206t-23 -152t-7 -147v-191q0 -104 7 -206t16 -204t17 -204t8 -206q-38 0 -72 15t-57 42t-32 63q-4 15 -4 32q0 22 7 46q-160 -136 -277 -175q-63 -21 -116 -21q-45 0 -82 15q-81 33 -130 126t-77 223t-38 285t-12 311z" />
<glyph unicode="V" horiz-adv-x="1226" d="M56 1396q-3 12 -3 22q0 20 12 35q19 23 45 23q42 0 81 -70t76 -178t73 -241t70 -259t68 -231t68 -157l492 1132q12 32 29 37t45 5q4 0 19 -1t30 -5t24 -12q5 -5 5 -12q0 -5 -2 -12l-604 -1434q-2 -4 -12 -11t-22 -13t-24 -10t-18 -4q-4 0 -19 14t-17 24z" />
<glyph unicode="W" horiz-adv-x="2084" d="M14 1454q10 30 32 36t48 6q44 0 77 -76t60 -192t54 -256t58 -268t71 -228t94 -136l454 1056q8 20 22 28t30 6t32 -12t28 -22q54 -122 121 -259t142 -275t154 -268t157 -240q46 24 71 112t49 235t56 352t90 463q4 24 19 30q10 4 21 4q5 0 11 -1q17 -3 35 -13t28 -20 q0 -146 -19 -297t-50 -305t-71 -308t-82 -304q-28 -52 -53 -93t-52 -57t-60 -1t-75 75l-554 936q-82 -240 -146 -414t-114 -295t-87 -197t-66 -120t-51 -65t-40 -33l-74 76q-38 74 -78 177t-80 221t-78 245t-72 251t-63 239t-49 207z" />
<glyph unicode="X" horiz-adv-x="1244" d="M4 1476q46 50 82 56q8 1 15 1q27 0 49 -17q14 -50 44 -117t70 -142t87 -153t94 -149t90 -131t77 -100q40 38 84 105t90 146t94 161t96 149t97 109t97 42q34 0 47 -25q10 -19 10 -40q0 -6 -1 -13q-22 -36 -63 -96t-90 -133t-102 -151t-100 -149t-83 -131t-52 -94 q10 -34 44 -77t80 -90t98 -96t98 -95t79 -88t43 -74q-32 -42 -62 -57q-11 -5 -23 -5q-20 0 -43 16l-390 414q-36 -28 -86 -102t-99 -153t-90 -140t-61 -61q-52 0 -68 26t-16 72q20 76 54 130t72 111t76 128t66 179q-28 30 -76 89t-104 135t-114 161t-104 168t-76 156 t-30 125z" />
<glyph unicode="Y" horiz-adv-x="1132" d="M44 1496q6 20 19 29t28 11t33 1t34 -3q48 -104 101 -211t116 -209t137 -195t164 -169q84 208 142 349t94 232t56 138t29 68t11 24t4 3q84 0 84 -82q0 -6 -2 -20t-2 -16l-544 -1508q0 -2 -6 -3t-10 -1q-46 0 -73 37q-24 32 -24 70q0 5 1 11q2 18 16 61t33 98t40 117 t38 117t28 97t9 58q-90 116 -168 219t-146 208t-128 219t-114 250z" />
<glyph unicode="Z" horiz-adv-x="1152" d="M56 1492q0 16 8 24t20 12t24 4h22h185h225h224t182 2q15 3 34 3q15 0 32 -2q38 -5 64 -20q29 -17 29 -45q0 -25 -39 -62q-94 -110 -189 -265t-189 -326t-182 -344t-166 -317h490q12 24 24 32t34 8q26 0 56 -13t56 -35t43 -49t17 -55q0 -4 -1 -19t-3 -19q-32 -2 -100 -5 t-153 -6t-180 -8t-180 -8t-154 -6t-101 -5h-22q-18 0 -32 13t-26 32t-20 38t-12 31q16 20 54 74t80 114t79 113t51 75q22 36 66 113t97 173t108 201t99 198t70 164q23 62 23 92q0 5 -1 9l-670 -28q-10 2 -23 18t-25 36t-20 37t-8 21z" />
<glyph unicode="[" horiz-adv-x="1012" d="M73 455q-1 141 2 276t12 275t24 291t41 325q86 20 188 37t207 28t205 17t180 6q0 -66 -37 -103t-95 -55t-131 -22t-146 -4t-137 -2t-106 -14q-6 -84 -11 -201t-8 -254t-5 -288t-5 -301t-6 -293t-7 -267q98 -6 178 -2t158 11t160 14t184 5q20 -6 32 -28t13 -46t-10 -46 t-35 -30q-100 6 -178 1t-152 -12t-151 -14t-175 -7q-24 0 -51 -1t-52 5t-44 23t-29 53q-4 176 -8 329t-5 294z" />
<glyph unicode="\" horiz-adv-x="1152" d="M54 1484q8 30 36 49t63 18t47 -43q212 -330 363 -563t253 -391t161 -252t89 -146t39 -71t9 -29v-16q-4 -6 -15 -17l-23 -23t-23 -22t-15 -14q-50 74 -123 187t-158 248t-178 281t-182 285t-170 260t-141 207q-40 22 -32 52z" />
<glyph unicode="]" horiz-adv-x="1016" d="M86 1666q0 26 13 39t32 17t40 4h37q172 0 322 7t286 -3q54 -238 66 -459t14 -442t6 -448t44 -473v-18q-76 -12 -168 -25t-185 -25t-183 -19t-164 -7q-54 0 -76 23t-22 71q0 8 2 30t4 26q40 2 123 5t176 11t177 22t128 38v22t1 34t1 35v23q-4 80 -9 204t-13 268t-16 294 t-18 282t-19 232t-19 144q-26 2 -74 0t-102 -4t-102 -4t-74 2q-4 0 -40 2t-78 11t-76 28t-34 53z" />
<glyph unicode="^" horiz-adv-x="994" d="M165 651q-1 9 1 19q40 88 69 133t52 77t44 67t47 103q4 18 20 33t37 22t41 6t32 -17l332 -332q4 -46 -11 -69t-39 -30t-52 -5t-48 6q-20 18 -49 50t-59 68t-59 69t-47 53l-160 -310q-20 -16 -45 -27t-47 -10t-39 17t-19 58q0 10 -1 19z" />
<glyph unicode="_" horiz-adv-x="1194" d="M58 97q6 25 18 53q148 -4 244 -3t166 5t127 10t126 11t164 8t241 3q0 -60 -14 -92t-40 -47t-63 -19t-85 -6q-68 -6 -148 -9t-164 -6t-167 -6t-159 -9q-106 10 -160 26t-73 36t-13 45z" />
<glyph unicode="`" horiz-adv-x="468" d="M43 1460q1 26 14 44t36 26t57 -2l286 -214q8 -50 -15 -82t-69 -28q-34 18 -73 47t-79 59t-78 57t-68 41q-12 26 -11 52z" />
<glyph unicode="a" horiz-adv-x="1024" d="M52 526q-1 11 -1 23q0 35 8 84q11 67 35 143t60 154t84 141t104 102t122 39q21 2 40 2q103 0 171 -53q81 -63 133 -173l-6 -616q0 -44 28 -75t68 -51t87 -29t85 -9q28 2 40 -20q11 -20 11 -45q0 -29 -14 -55q-13 -24 -33 -26q-88 2 -150 16t-106 43t-76 72t-60 101 q-24 -44 -59 -96t-80 -96t-96 -74t-107 -30q-94 0 -151 57t-87 139t-40 173t-10 159zM198 510q0 -34 6 -94t23 -120t48 -104t83 -44q8 -1 16 -1q48 0 82 32q40 37 72 109t62 174t66 228q12 76 12 136t-12 103q-24 87 -75 118q-29 18 -63 18q-25 0 -54 -10q-66 -23 -125 -94 t-100 -185t-41 -266z" />
<glyph unicode="b" horiz-adv-x="908" d="M68 1516q24 26 48 35q17 6 31 6q7 0 13 -1q20 -4 33 -19t17 -39v-80v-120v-123v-87q158 88 277 91h12q111 0 186 -52q79 -55 122 -157t51 -223q2 -28 2 -57q0 -94 -20 -191q-26 -127 -82 -234t-142 -181t-200 -88q-12 0 -41 -2t-66 -4t-77 -3h-16q-31 0 -58 3 q-34 4 -56 12t-22 24zM204 650q0 -88 5 -175t11 -170t12 -155h29t45 -1t46 -1h30q88 2 155 62t107 150t53 197q6 48 6 94q0 57 -9 110q-16 97 -64 170t-128 95q-56 0 -106 -10t-90 -33t-65 -63t-31 -100q-6 -82 -6 -170z" />
<glyph unicode="c" horiz-adv-x="792" d="M54 696q0 68 11 153t44 159t91 124t154 50q60 0 113 -22t92 -62t62 -94t23 -116q-56 0 -88 22t-58 49t-51 49t-65 22q-72 0 -108 -36t-52 -88t-17 -109t-1 -101t5 -102t19 -119t36 -119t56 -104t81 -74t109 -28q32 0 56 13t47 30t48 30t57 13q0 -48 -25 -92t-63 -76 t-86 -51t-92 -19q-70 0 -127 38t-101 98t-76 136t-53 154t-31 149t-10 123z" />
<glyph unicode="d" horiz-adv-x="874" d="M36 584q0 78 19 180t62 195t111 157t166 64q36 0 72 -9t70 -23t61 -32t45 -38q0 90 -1 153v41q0 39 1 73q2 51 6 97t10 104q12 10 37 17q19 5 39 5h12q26 -2 45 -15t21 -41q-14 -32 -21 -111t-10 -186q-2 -80 -2 -171v-62q1 -126 4 -253t9 -246t12 -213t13 -153t11 -65 q0 -34 -25 -45t-53 -11q-46 0 -63 43q-11 27 -11 64q0 22 4 47q-20 -26 -51 -52t-67 -48t-74 -36t-72 -14q-102 0 -175 61t-118 151t-66 191t-21 181zM186 596q0 -54 5 -131t28 -147t69 -119t128 -49q80 6 130 75t73 167q20 87 20 184v26q-3 112 -27 207t-69 155 q-42 56 -99 56h-8q-76 0 -124 -47t-76 -113t-39 -139t-11 -125z" />
<glyph unicode="e" horiz-adv-x="930" d="M-84 875q-2 13 -2 23q0 15 4 24q0 24 13 41t30 24t35 3t30 -20q16 -112 41 -161t52 -66t51 -15t38 -4q6 110 29 201t72 155t129 99q76 33 189 33h13q92 0 155 -42t63 -142q0 -110 -45 -180t-118 -116t-163 -74t-180 -54q0 -4 2 -21t3 -36t3 -36t2 -21q12 -142 56 -219 t103 -110t126 -33t124 13t95 26t40 5q6 -14 6 -30q0 -13 -4 -26q-8 -30 -41 -56t-97 -43t-164 -19q-86 0 -146 26t-102 71t-67 104t-41 125t-28 133t-24 129q-16 -2 -31 -2q-34 0 -63 12q-42 18 -75 51t-57 74t-38 81t-18 73zM348 750q9 -1 17 -1q55 0 117 22q72 25 132 64 t98 85q33 40 33 75q0 6 -1 11q-4 36 -30 63t-84 27q-70 0 -122 -30t-88 -79t-54 -111t-18 -126z" />
<glyph unicode="f" horiz-adv-x="862" d="M23 791q3 19 13 31t26 6l248 22q0 110 11 224t37 212t69 170t109 96q23 6 42 6q36 0 62 -19q40 -29 64 -77t35 -99t15 -79q0 -24 -20 -32t-36 -8q-22 2 -37 30t-29 61t-30 58t-42 19q-28 -8 -52 -65t-39 -138t-16 -175v-8q0 -89 21 -166q58 0 120 8t125 19t126 19t121 8 q1 -9 1 -17q0 -31 -17 -51q-22 -26 -62 -43t-94 -26t-112 -15l-116 -12t-106 -16q-7 -73 -7 -142q0 -34 2 -67q5 -99 15 -187t19 -165t9 -145q-4 -30 -19 -47t-36 -20q-4 -1 -8 -1q-17 0 -35 11q-22 13 -38 43q-16 74 -20 157t-5 171t-3 184t-10 198l-284 -6q-12 12 -16 33 q-2 12 -2 23q0 9 1 17z" />
<glyph unicode="g" horiz-adv-x="786" d="M38 472q0 36 10 116t32 176t57 192t87 162q50 66 115 82q34 8 68 8q32 0 64 -7q67 -15 133 -52t120 -79q10 -16 20 -83t19 -168t12 -227q1 -54 1 -109q0 -74 -2 -150q-4 -133 -20 -263t-45 -241t-75 -192t-112 -116q-42 -22 -93 -22q-29 0 -61 7q-88 20 -202 114 q-8 24 -2 49t21 44t36 28t39 3q56 -70 106 -87q23 -8 44 -8q25 0 47 11q41 20 72 69t51 110t26 127q3 28 3 54q0 35 -5 66q-34 -54 -104 -86q-59 -27 -116 -27q-11 0 -22 1q-100 0 -163 45t-99 116t-49 160t-13 177zM185 530v-27q0 -24 1 -35q0 -44 3 -99t18 -104t49 -83 t98 -34q34 0 78 15t82 40t64 60t26 77v592q-70 80 -126 107q-38 18 -70 18q-15 0 -29 -4q-43 -13 -75 -57t-54 -104t-36 -128t-21 -128t-8 -106z" />
<glyph unicode="h" horiz-adv-x="992" d="M48 1508q0 22 20 29q14 5 30 5q7 0 15 -1q25 -3 47 -14t28 -25l-6 -526q24 8 80 35t129 50t154 31q17 2 34 2q62 0 119 -24q70 -36 113 -106t67 -157t33 -183t9 -186t-5 -166t-9 -122l76 -74q-8 -34 -41 -53t-70 -21h-7q-33 0 -64 16q-34 18 -44 58q2 32 2 112v170v171 t-2 113q-18 150 -71 218t-130 79q-19 3 -39 3q-61 0 -130 -26q-92 -34 -188 -88l4 -776q-12 -16 -28 -30t-36 -18t-40 5t-40 39z" />
<glyph unicode="i" horiz-adv-x="302" d="M56 1360q0 30 1 60t9 54t26 39t54 15q42 0 60 -20t18 -58q0 -30 -21 -48t-49 -27t-56 -12t-42 -3zM72 34v1068q8 30 28 46t42 20q7 1 14 1q14 0 25 -5q17 -8 21 -24q1 -77 1 -164v-90q-1 -138 -2 -282v-72q0 -107 2 -213q3 -141 15 -265q-4 -24 -22 -42t-41 -24 q-9 -2 -17 -2l-29 6q-23 10 -37 42z" />
<glyph unicode="j" horiz-adv-x="318" d="M-204 -382q62 -9 108 -9q15 0 29 1q55 4 89 31t48 79t16 136q9 104 9 205q0 34 -1 68q-4 135 -12 270t-13 269q-1 35 -1 71q0 99 10 199q0 6 3 19t15 25t35 17q9 2 21 2q18 0 44 -5q36 -140 49 -291t13 -305t-10 -309t-22 -305q-6 -72 -17 -129t-38 -95t-75 -58t-128 -20 q-34 0 -66 5t-56 19t-38 40q-12 23 -12 59v11zM36 1498q28 48 53 63t65 15q54 -18 72 -47q14 -22 14 -43q0 -7 -2 -14q-6 -28 -32 -48t-57 -23h-7l-55 19q-31 22 -51 78z" />
<glyph unicode="k" horiz-adv-x="948" d="M20 86q28 170 35 352q6 159 6 318v45q-1 181 -7 357q-4 106 -4 205q0 67 2 131q0 28 17 42t39 17q6 1 11 1q16 0 31 -7q20 -9 24 -29q10 -256 21 -402t20 -218t15 -90t8 -18q48 46 76 73t52 49t51 47t72 67t117 109t184 173q16 14 32 8t24 -26t4 -50t-28 -62l-540 -564 q72 -92 165 -171t179 -137t150 -94t80 -42q50 -12 65 -32q11 -15 11 -30q0 -5 -1 -10q-5 -20 -23 -33t-34 -11q-88 2 -186 44t-188 106t-167 143t-123 155q0 -8 1 -41v-36.5v-43.5q-1 -47 -4 -101t-12 -105t-23 -92t-36 -59q-30 -26 -52 -26q-12 0 -21 7q-27 21 -43 81z" />
<glyph unicode="l" horiz-adv-x="260" d="M52 1470q-1 4 -1 8q0 18 15 35q18 21 41 30q12 4 23 4.5t22 -4.5q22 -9 26 -45q10 -316 17 -549t12 -398t9 -269t7 -164t5 -84t6 -26q-24 -20 -51 -27q-19 -5 -36 -5q-7 0 -14 1q-23 3 -38 16t-15 35q2 69 2 148.5t-2 169.5q-4 180 -10 374l-12 388t-6 362z" />
<glyph unicode="m" horiz-adv-x="1512" d="M40 1136q57 26 89 26q11 0 19 -3q30 -13 41 -57t17 -109t34 -133q24 30 58 72t82 82t110 68t142 32q23 6 43.5 6t37.5 -6q35 -12 62 -35t46 -52t35 -51q34 54 85 93t108 62t116 27q13 1 26 0q44 0 83 -10q50 -14 86 -48t50 -90q18 -46 31 -129t21 -182t12 -204t4 -196 t-2 -158t-6 -89q2 -26 -23 -37t-57 -11t-60 10t-30 28q4 34 12 108t14 167t7 196v19q0 93 -9 180q-10 96 -34 175t-68 123q-24 14 -54 14q-20 0 -43 -6q-57 -16 -109 -52t-89 -86t-37 -94q0 -82 8 -168t18 -168t18 -156t8 -130t-35 -71t-87 -15q-16 6 -25 65t-15 145 t-10 187t-11 193t-20 162t-33 94q-55 47 -112 47q-17 0 -35 -4q-75 -19 -136 -89t-102 -175t-45 -213q0 -50 -2 -107t-2 -116t5 -118t19 -113q-8 -24 -26 -42t-40 -25q-11 -4 -22.5 -3.5t-22.5 3.5q-23 7 -41 31q-4 30 -12 103t-18 167t-19 198t-18 197t-16 166t-9 105 q-2 10 -4 39t-4 61t-3 61t-1 39z" />
<glyph unicode="n" horiz-adv-x="982" d="M48 1144q-2 22 16 31t44 12q13 2 25.5 1.5t25.5 -1.5q25 -3 39 -5q-2 -14 -2 -47t2 -77t7 -91t13 -87q38 32 89 78t108 88t118 71t119 29q66 0 112 -34t78 -86t49 -112t25 -110q2 -10 3 -57t2 -115t2 -148t4 -155t6 -139t7 -98v-22q0 -34 -24 -45t-52 -11q-24 0 -45 4 t-31 36q-2 24 -3 82t-3 134t-3 159t-3 159t-5 134t-7 82q-4 28 -14 62t-28 63t-44 49t-62 20q-58 0 -116 -40t-110 -92t-93 -102t-61 -72q0 -60 -2 -136t-5 -156t-5 -158q-1 -39 -1 -74t1 -66q0 -20 -1 -39t-8 -36t-23 -29t-46 -20q-4 -1 -8 -1q-15 0 -36 11q-28 14 -30 28z " />
<glyph unicode="o" horiz-adv-x="850" d="M27 492q3 84 18 179t45 191t76 171t110 117q50 33 110 33q17 0 36 -3q122 0 198 -35t119 -98t62 -149t25 -188q6 -41 6 -88q0 -28 -2 -59q-6 -81 -28 -163t-60 -157t-91 -132t-122 -89q-55 -26 -120 -26q-16 0 -33 2q-82 0 -146 27t-107 75t-66 114t-23 144q-8 38 -8 97 q0 18 1 37zM174 426q0 -52 7 -101t28 -89t58 -64t97 -24q80 0 141 64t103 154t63 184t21 154q0 98 -23 166t-57 110t-75 61t-77 23q-46 0 -86 -36t-73 -93t-58 -128t-41 -142t-23 -134q-5 -49 -6 -85q1 -11 1 -20z" />
<glyph unicode="p" horiz-adv-x="828" d="M-12 1036q44 44 89 69t83 38t67 16t45 3q100 0 192 -14t163 -54t114 -111t43 -183q-18 -180 -67 -308t-116 -211t-144 -128t-149 -59l-4 -562q0 -18 -25 -29q-21 -9 -47 -9h-9q-31 2 -57 20t-28 56v1428q-10 -22 -23 -30t-33 -8q-34 0 -54 24t-40 52zM286 266h12 q59 0 115 37q61 41 109 112t78 167t34 202q0 68 -27 114t-72 74t-106 40t-129 12z" />
<glyph unicode="q" horiz-adv-x="914" d="M72 406q0 108 42 231t117 229t177 176t220 70q8 1 16 1q57 0 96 -51q44 -58 70 -160t37 -236t13 -277q1 -41 1 -82q0 -102 -4 -203q-5 -142 -11 -258t-10 -197q-2 -41 -2 -66.5t2 -36.5q2 -40 -18 -55q-16 -12 -36 -12q-5 0 -11 1q-27 4 -52 24t-33 50q4 90 11 173 t11 165q2 47 2 94q0 35 -1 71q-3 83 -17 171q-26 -34 -64 -71t-82 -68t-90 -51t-86 -20q-96 0 -155 27t-91 78t-42 123t-10 160zM208 414q-2 -33 -2 -62q0 -90 23 -140q31 -66 84 -77q14 -3 28 -3q42 0 90 24q65 32 123 89t98 131t44 146q2 51 2 99q0 36 -1 69 q-3 78 -20 135t-51 90t-92 33q-34 0 -72 -31t-74 -79t-69 -108t-58 -120t-39 -112t-14 -84z" />
<glyph unicode="r" horiz-adv-x="802" d="M42 1102q0 34 25 47t53 13q20 0 34 -9t25 -21t22 -26t29 -24q30 34 79 55t106 30q51 8 105 8h12q60 -1 111 -12t87 -31t48 -46q-24 -54 -49 -67t-57 -9t-76 13q-19 4 -41 4q-30 0 -67 -7q-92 -2 -146 -60t-82 -149t-36 -204q-5 -75 -5 -150q0 -37 1 -74q4 -111 12 -211 t12 -164q-16 -16 -39 -27q-19 -9 -38 -9h-7q-22 2 -41 17t-25 49q3 68 3 153q0 42 -1 89q-2 140 -9 288t-19 289t-26 245z" />
<glyph unicode="s" horiz-adv-x="600" d="M12 238q24 72 41 90t30 5t28 -47t38 -67t56 -55q21 -14 51 -14q16 0 34 4q34 16 58 44t20 54q-12 64 -56 123t-94 117t-94 116t-56 122q-6 29 -6 67q0 23 2 50q6 71 29 139t62 119t97 59q94 -4 162 -24t104 -47q38 -29 38 -62q0 -30 -36 -57q-78 14 -142 18q-11 1 -21 1 q-50 0 -85 -17q-42 -20 -58 -73q-7 -24 -7 -57q0 -42 11 -98q14 -66 61 -124t101 -115t101 -116t61 -125q3 -16 3 -32q0 -36 -16 -68q-23 -46 -66 -81t-100 -58t-113 -31q-10 -1 -20 -1q-33 0 -66 15q-42 20 -75 56t-54 81t-23 89z" />
<glyph unicode="t" horiz-adv-x="812" d="M32 922q0 48 25 63t69 15t91 -12q43 -11 79 -11h6q38 1 59 28q16 21 16 74q0 15 -1 33q2 26 2 80v114v114t-2 82q6 18 23 29t37 15t40 5t32 1v-586q60 0 117 11t113 25t111 25t113 11q32 0 63 -8t31 -50q0 -38 -34 -64t-86 -44t-116 -29t-125 -17t-112 -8t-75 -2l2 -778 q-4 -22 -27 -31q-15 -6 -32 -6q-10 0 -20 2q-29 5 -56 23t-35 50q0 216 2 359t3 230q0 44 0.5 74.5t-0.5 48.5q-1 36 -5 38q-16 6 -59 14t-93 17t-94 17t-58 10q0 4 -2 19t-2 19z" />
<glyph unicode="u" horiz-adv-x="924" d="M57 693q-2 40 -2 78q0 76 7 147q10 106 32 176q4 0 19 2t19 2q24 0 44 -5t30 -37q-8 -99 -8 -195q0 -102 9 -200q17 -191 83 -381q42 -84 88 -105q21 -10 42 -10q25 0 49 14q45 25 87 87t78 144t63 175t42 179t16 158v7q0 67 -17 103q0 4 -6 21t-12 36t-12 36t-6 21 q0 22 20 30t36 8q60 -26 92 -88t39 -149q2 -29 2 -60q0 -61 -9 -129q-14 -102 -44 -205t-74 -200t-97 -173t-113 -125t-120 -55q-98 6 -167 70t-114 163t-68 220t-28 240z" />
<glyph unicode="v" horiz-adv-x="1018" d="M16 1174q12 0 32 -2t41 -7t38 -14t23 -21l332 -850l340 776q4 6 14 18t22 24t23 21t17 11q26 6 41 1t24 -17t12 -27t3 -29q0 -2 -4 -16t-18 -51t-41 -105t-73 -181t-114 -276t-162 -391q-4 -10 -18 -24t-20 -14q-36 0 -77 46t-83 122t-85 174t-82 202t-73 208t-59 191 t-39 148t-14 83z" />
<glyph unicode="w" horiz-adv-x="1580" d="M44 1084q39 21 68 21q7 0 13 -1q33 -6 55 -28t34 -53t18 -51q8 -22 24 -74t37 -119t43 -141t41 -141t35 -120t22 -75q12 24 36 74t54 113t63 133t63 133t53 114t33 75q14 34 18 68t13 61t31 44t70 17q30 0 47 -22t26 -52t13 -63t8 -53q4 -22 15 -71t25 -112t30 -133 t31 -133t27 -112t16 -69q56 84 94 191t66 223t51 230t49 210q6 0 28 1t30 1q40 0 69 -5t63 -35l-412 -1044q-12 -22 -23 -30t-33 -8q-42 0 -72 47t-53 119t-40 156t-34 158t-36 127t-43 61l-38 -36l-300 -642q-4 -10 -19 -24t-19 -14q-28 0 -53 14t-41 36t-22 49t2 51z" />
<glyph unicode="x" horiz-adv-x="962" d="M48 1072q0 28 12 53t46 25q40 0 73 -32t63 -80t58 -105t58 -105t62 -80t72 -32q38 0 72 32t65 80t59 105t57 105t57 80t58 32q44 0 63 -19t19 -48t-13 -62t-31 -59q-8 -12 -29 -43t-49 -71t-59 -85t-59 -85t-50 -71t-30 -41q0 -72 34 -127t76 -108t79 -110t43 -131 q-32 -50 -56 -56t-48 16t-50 65t-58 91t-73 95t-97 77q-24 -28 -59 -87t-75 -120t-80 -111t-70 -62q-24 0 -36 12t-17 29t-5 37t2 38q18 36 51 95t68 121t66 115t43 81q0 60 -44 129t-99 141t-105 142t-64 134z" />
<glyph unicode="y" horiz-adv-x="1048" d="M46 1068q0 32 8 63t50 31q22 0 33 -9t23 -31l396 -760l338 792q10 22 24 31t34 9q26 -2 40 -18t19 -40q4 -20 4 -41v-8q-1 -25 -7 -45l-588 -1520q-16 -28 -42 -41q-24 -12 -47 -12h-3q-24 1 -41 15t-17 38q36 138 95 293t117 301q-54 118 -102 215t-98 202t-107 231 t-129 304z" />
<glyph unicode="z" horiz-adv-x="1010" d="M56 114l700 896h-452q-46 0 -64 23t-19 51t13 51t32 25h642q62 -10 76 -44q7 -16 7 -34q0 -19 -8 -40q-15 -40 -48 -81t-65 -65q-92 -82 -172 -172t-154 -186t-144 -196t-142 -204q60 0 138 9t160 20t162 21t144 10h49t41 -7t28 -23t10 -48q0 -20 -10 -40t-27 -36 t-38 -26t-43 -10q-77 19 -160 19h-22q-94 -3 -187 -14t-183 -19q-36 -3 -70 -3q-52 0 -100 7q-52 0 -81 32q-19 21 -19 50q0 16 6 34z" />
<glyph unicode="{" horiz-adv-x="836" d="M123 1106q-21 88 15 188t107 188t167 155t192 91q90 2 109 -34t5 -86q-84 -26 -163 -52t-139 -71t-95 -117t-31 -188q0 -58 32 -94t79 -58t103 -36t103 -25t79 -25t32 -38l-19 -20t-41 -49t-40 -62t-16 -60t32 -42t104 -7q-70 -106 -123 -181t-89 -149t-55 -161t-19 -219 q6 -72 35 -110t66 -58t72 -28t55 -20t14 -36t-50 -72q-134 4 -214 54t-115 127t-32 176t33 202t83 203t117 182q-6 18 -28 27t-45 18t-42 21t-18 38t29 69t96 113q-182 24 -273 91t-112 155z" />
<glyph unicode="|" horiz-adv-x="450" d="M164 -24l14 1474q2 48 26 67t50 14t46 -27t18 -54l-18 -1498q-16 -24 -38 -38t-42 -12t-36 20t-20 54z" />
<glyph unicode="}" horiz-adv-x="696" d="M88 1655q4 33 19 48t40 17t55 0q84 -40 169 -113t151 -161t101 -181t20 -173t-91 -136t-232 -72q58 -70 82 -113t25 -68t-15 -37t-36 -21t-38 -18t-24 -27q54 -82 101 -183t75 -206t32 -206t-25 -181t-97 -131t-184 -55q-56 50 -66 77t9 41t56 24t74 29t65 53t28 98 q0 130 -18 221t-52 169t-82 156t-108 184q62 -8 88 7t28 42t-13 59t-34 61t-36 49l-17 20q0 24 29 38t72 25t92 25t90 36t67 58t20 92q-10 100 -58 167t-111 109t-129 62t-110 26q-16 56 -12 89z" />
<glyph unicode="~" horiz-adv-x="962" d="M44 620q16 44 32 101t38 108t56 87t86 36q30 0 70 -5t91 -30t116 -76t145 -141q62 -30 89 -10t34 60t1 86t-6 70q10 20 30 30t42 8t40 -18t26 -48q4 -70 -3 -133t-34 -108t-77 -69t-132 -14q-50 6 -89 30t-71 55t-60 67t-57 65t-60 49t-69 20q-54 -22 -73 -58t-22 -73 t2 -68t-1 -43q-14 -26 -38 -37t-47 -7t-40 21t-19 45z" />
<glyph unicode="&#xa1;" horiz-adv-x="424" d="M117 1437q5 -23 20 -37t37 -19t42 -1q14 12 28 34t21 44t5 42t-16 28t-45 1t-81 -37q-16 -32 -11 -55zM140 1156q2 -118 4 -202t5 -154t5 -137t4 -150t4 -192t4 -265q14 -44 35 -62t40 -17t34 14t21 31q-22 208 -29 360t-9 277t-4 240t-10 247q-4 36 -19 54t-33 19 t-33 -15t-19 -48z" />
<glyph unicode="&#xa2;" horiz-adv-x="776" d="M54 696q0 62 8 153t34 179t73 158t123 92q-4 32 -4 54t-1 43t-2 47t-3 68v24q0 34 26 45t54 11q48 0 56 -25t14 -93q4 -38 5 -60t2 -39t2 -35t5 -48q86 -30 140 -104t54 -174q-34 0 -60 9t-45 23t-35 30t-30 32q18 -130 34 -237t29 -212t22 -218t15 -253q36 18 69 44 t79 26q84 -42 46 -100t-188 -116q0 -50 1 -104t1 -114q-4 -54 -22 -82t-40 -28t-43 27t-33 83q-4 32 -6 50t-5 32t-5 29t-4 43h-10q-70 0 -124 41t-94 106t-66 147t-42 164t-23 156t-7 126zM204 696q0 -56 9 -132t31 -151t60 -139t98 -96q-12 142 -24 257t-24 223t-24 217 t-24 239q-42 -26 -64 -81t-30 -118t-8 -123v-96z" />
<glyph unicode="&#xa3;" horiz-adv-x="1618" d="M-110 878q14 42 59 58t99 18t108 -3t88 -5q0 30 -2 68t-3 78t-2 79t1 69q4 60 28 121t65 110t94 80t115 31q70 -18 138 -64t124 -110t92 -140t42 -154q-48 0 -84 23t-65 59t-54 76t-50 76t-55 59t-68 23q-34 0 -65 -18t-55 -46t-38 -61t-14 -65l-8 -286h464 q0 -50 -26 -80t-67 -46t-92 -21t-103 -5t-98 3t-78 3l-58 -422q140 -2 241 -29t175 -65t127 -77t97 -64t86 -25t95 39t121 127t166 242q0 2 7 3t9 1q24 0 42 -11t32 -29t21 -39t7 -41q0 -8 -1 -21t-3 -15l-332 -356q-110 -42 -203 -25t-183 60t-184 94t-206 79 q-52 18 -84 -7t-48 -67t-19 -87t1 -65q-4 0 -19 -2t-19 -2q-18 -8 -40 -7t-41 10t-31 24t-6 35l102 606q0 52 -16 80t-43 41t-61 18t-72 10t-77 17t-73 40z" />
<glyph unicode="&#xa5;" horiz-adv-x="1044" d="M34 1492q6 20 19 29t28 11t33 1t34 -3q48 -104 80 -172t69 -128t90 -123t141 -157q104 194 172 313t110 185t65 89t39 23q84 0 84 -82q0 -2 -28 -52t-69 -124t-90 -159t-90 -159t-69 -123l-28 -49l-2 -86q52 4 94 7t64 5h22q34 0 46 -25t12 -53q0 -24 -11 -38t-28 -21 t-38 -9t-41 -4q-16 -2 -49 -4t-73 -6l-2 -224q62 0 119 1t99 9q30 -10 36 -32t6 -46q0 -20 -21 -35t-57 -25t-84 -16t-100 -8l-2 -284q0 -2 -6 -3t-10 -1q-24 0 -48 3t-43 10t-30 21t-9 36q4 16 3 75t-3 139q-84 0 -152 2t-90 2q-26 44 -16 72t45 45t89 24t118 9 q-2 56 -3 110t-5 106q-78 -6 -145 -11t-95 -7q-30 14 -36 37t3 45t29 41t42 27q22 2 76 6t118 8q-2 28 -3 50t-1 32q-60 78 -103 134t-77 103t-60 91t-52 95t-53 116t-63 157z" />
<glyph unicode="&#xa8;" horiz-adv-x="812" d="M142 1424q14 0 42 1t56 -5t49 -21t21 -45q0 -14 -3 -31t-9 -32t-17 -25t-29 -10q-30 0 -50 18t-34 44t-20 55t-6 51zM426 1424q14 0 42 1t56 -5t49 -21t21 -45q0 -14 -3 -31t-9 -32t-17 -25t-29 -10q-30 0 -50 18t-34 44t-20 55t-6 51z" />
<glyph unicode="&#xad;" horiz-adv-x="874" d="M56 804q0 18 11 26t26 11t29 3h22l548 -46q32 -6 58 -12t46 -18t31 -34t11 -58q-102 12 -167 19t-111 10t-84 4t-86 3t-118 5t-178 11q-4 2 -11 13t-13 23t-10 23t-4 17z" />
<glyph unicode="&#xaf;" horiz-adv-x="824" d="M82 1261q-6 23 3 45t29 41t42 27q20 2 61 5t93 6t109 8t110 8t94 6t61 5h22q34 0 46 -25t12 -53q0 -24 -11 -38t-28 -21t-38 -9t-41 -4t-61 -5t-94 -6t-110 -8t-109 -8t-93 -6t-61 -5q-30 14 -36 37z" />
<glyph unicode="&#xb4;" horiz-adv-x="460" d="M30 1314l286 214q32 10 56 2t37 -26t14 -44t-11 -52q-30 -14 -68 -41t-78 -57t-79 -59t-73 -47q-46 -4 -69 28t-15 82z" />
<glyph unicode="&#xb7;" horiz-adv-x="328" d="M82 618q-2 26 8 48q14 34 45 52t63 14t55 -32t23 -88q0 -14 -3 -32t-10 -33t-18 -26t-29 -11q-44 2 -73 18t-44 40t-17 50z" />
<glyph unicode="&#xb8;" horiz-adv-x="680" d="M126 -298q38 48 57 59t29 1t18 -36t23 -51t43 -43t80 -14q36 8 65 26t29 36q0 46 -38 77t-83 59t-82 58t-37 76q0 66 23 92t50 20t50 -37t23 -75q0 -48 41 -79t90 -59t90 -59t41 -79q0 -38 -32 -75t-82 -62t-108 -33t-108 10q-44 0 -80 18t-61 46t-36 61t-5 63z" />
<glyph unicode="&#xbf;" horiz-adv-x="986" d="M81 235q-5 79 37 191q48 122 126 215t157 159t143 105t84 51q38 0 53 -15t23 -61q-174 -110 -286 -235t-162 -234t-39 -186t81 -91t200 52t318 240q38 28 61 25t37 -25q-30 -88 -89 -160t-134 -124t-158 -82t-160 -36t-143 14t-105 69t-44 128zM510 1418q-6 18 13 47 t45 41t52 -6t36 -94q-2 -38 -23 -54t-47 -13t-49 23t-27 56z" />
<glyph unicode="&#xc0;" d="M40 -34q18 48 42 140t51 190t51 184t42 124q-4 12 -16 15t-25 7t-24 14t-13 36q0 32 14 52t36 33t49 20t55 11q32 116 59 191t52 142t51 141t56 190q8 14 31 41t52 50t58 33t49 -10l120 -702q8 6 29 13t45 13t46 10t32 2q6 -2 18 -11t24 -21t22 -24t10 -20 q-16 -24 -44 -42t-59 -32t-64 -23t-59 -17q36 -176 43 -369t7 -369q-58 0 -92 39t-52 100t-24 139t-9 156t-7 149t-16 119q-16 0 -53 -5t-79 -11t-80 -13t-52 -9q-2 0 -6 -6t-13 -27t-25 -63t-40 -117t-59 -188t-83 -275h-150zM435 1892q1 26 14 44t36 26t57 -2l286 -214 q8 -50 -15 -82t-69 -28q-34 18 -73 47t-79 59t-78 57t-68 41q-12 26 -11 52zM454 792l226 38v16q-4 38 -13 101t-20 131t-22 132t-15 104q-58 -190 -90 -295t-47 -155t-17 -61z" />
<glyph unicode="&#xc1;" d="M40 -34q18 48 42 140t51 190t51 184t42 124q-4 12 -16 15t-25 7t-24 14t-13 36q0 32 14 52t36 33t49 20t55 11q32 116 59 191t52 142t51 141t56 190q8 14 31 41t52 50t58 33t49 -10l120 -702q8 6 29 13t45 13t46 10t32 2q6 -2 18 -11t24 -21t22 -24t10 -20 q-16 -24 -44 -42t-59 -32t-64 -23t-59 -17q36 -176 43 -369t7 -369q-58 0 -92 39t-52 100t-24 139t-9 156t-7 149t-16 119q-16 0 -53 -5t-79 -11t-80 -13t-52 -9q-2 0 -6 -6t-13 -27t-25 -63t-40 -117t-59 -188t-83 -275h-150zM420 1702l286 214q32 10 56 2t37 -26t14 -44 t-11 -52q-30 -14 -68 -41t-78 -57t-79 -59t-73 -47q-46 -4 -69 28t-15 82zM454 792l226 38v16q-4 38 -13 101t-20 131t-22 132t-15 104q-58 -190 -90 -295t-47 -155t-17 -61z" />
<glyph unicode="&#xc2;" d="M40 -34q18 48 42 140t51 190t51 184t42 124q-4 12 -16 15t-25 7t-24 14t-13 36q0 32 14 52t36 33t49 20t55 11q32 116 59 191t52 142t51 141t56 190q8 14 31 41t52 50t58 33t49 -10l120 -702q8 6 29 13t45 13t46 10t32 2q6 -2 18 -11t24 -21t22 -24t10 -20 q-16 -24 -44 -42t-59 -32t-64 -23t-59 -17q36 -176 43 -369t7 -369q-58 0 -92 39t-52 100t-24 139t-9 156t-7 149t-16 119q-16 0 -53 -5t-79 -11t-80 -13t-52 -9q-2 0 -6 -6t-13 -27t-25 -63t-40 -117t-59 -188t-83 -275h-150zM382 1750l158 204q6 16 24 29t40 19t42 2 t30 -20l192 -244q0 -46 -14 -68t-33 -29t-42 -3t-43 10q-34 40 -62 78t-62 84l-100 -140q-70 -44 -108 -25t-22 103zM454 792l226 38v16q-4 38 -13 101t-20 131t-22 132t-15 104q-58 -190 -90 -295t-47 -155t-17 -61z" />
<glyph unicode="&#xc3;" d="M40 -34q18 48 42 140t51 190t51 184t42 124q-4 12 -16 15t-25 7t-24 14t-13 36q0 32 14 52t36 33t49 20t55 11q32 116 59 191t52 142t51 141t56 190q8 14 31 41t52 50t58 33t49 -10l120 -702q8 6 29 13t45 13t46 10t32 2q6 -2 18 -11t24 -21t22 -24t10 -20 q-16 -24 -44 -42t-59 -32t-64 -23t-59 -17q36 -176 43 -369t7 -369q-58 0 -92 39t-52 100t-24 139t-9 156t-7 149t-16 119q-16 0 -53 -5t-79 -11t-80 -13t-52 -9q-2 0 -6 -6t-13 -27t-25 -63t-40 -117t-59 -188t-83 -275h-150zM214 1648q16 44 32 101t38 108t56 87t86 36 q30 0 70 -5t91 -30t116 -76t145 -141q62 -30 89 -10t34 60t1 86t-6 70q10 20 30 30t42 8t40 -18t26 -48q4 -70 -3 -133t-34 -108t-77 -69t-132 -14q-50 6 -89 30t-71 55t-60 67t-57 65t-60 49t-69 20q-54 -22 -73 -58t-22 -73t2 -68t-1 -43q-14 -26 -38 -37t-47 -7t-40 21 t-19 45zM454 792l226 38v16q-4 38 -13 101t-20 131t-22 132t-15 104q-58 -190 -90 -295t-47 -155t-17 -61z" />
<glyph unicode="&#xc4;" d="M40 -34q18 48 42 140t51 190t51 184t42 124q-4 12 -16 15t-25 7t-24 14t-13 36q0 32 14 52t36 33t49 20t55 11q32 116 59 191t52 142t51 141t56 190q8 14 31 41t52 50t58 33t49 -10l120 -702q8 6 29 13t45 13t46 10t32 2q6 -2 18 -11t24 -21t22 -24t10 -20 q-16 -24 -44 -42t-59 -32t-64 -23t-59 -17q36 -176 43 -369t7 -369q-58 0 -92 39t-52 100t-24 139t-9 156t-7 149t-16 119q-16 0 -53 -5t-79 -11t-80 -13t-52 -9q-2 0 -6 -6t-13 -27t-25 -63t-40 -117t-59 -188t-83 -275h-150zM430 1844q14 0 42 1t56 -5t49 -21t21 -45 q0 -14 -3 -31t-9 -32t-17 -25t-29 -10q-30 0 -50 18t-34 44t-20 55t-6 51zM454 792l226 38v16q-4 38 -13 101t-20 131t-22 132t-15 104q-58 -190 -90 -295t-47 -155t-17 -61zM714 1844q14 0 42 1t56 -5t49 -21t21 -45q0 -14 -3 -31t-9 -32t-17 -25t-29 -10q-30 0 -50 18 t-34 44t-20 55t-6 51z" />
<glyph unicode="&#xc5;" d="M40 -34q18 48 42 140t51 190t51 184t42 124q-4 12 -16 15t-25 7t-24 14t-13 36q0 32 14 52t36 33t49 20t55 11q32 116 59 191t52 142t51 141t56 190q8 14 31 41t52 50t58 33t49 -10l120 -702q8 6 29 13t45 13t46 10t32 2q6 -2 18 -11t24 -21t22 -24t10 -20 q-16 -24 -44 -42t-59 -32t-64 -23t-59 -17q36 -176 43 -369t7 -369q-58 0 -92 39t-52 100t-24 139t-9 156t-7 149t-16 119q-16 0 -53 -5t-79 -11t-80 -13t-52 -9q-2 0 -6 -6t-13 -27t-25 -63t-40 -117t-59 -188t-83 -275h-150zM408 1840q0 60 39 104t97 66q36 14 87 -2 t99 -48t83 -71t35 -73q2 -54 -30 -92t-81 -59t-107 -23t-107 19t-82 65t-33 114zM454 792l226 38v16q-4 38 -13 101t-20 131t-22 132t-15 104q-58 -190 -90 -295t-47 -155t-17 -61zM516 1822q-10 -22 18 -38t66 -20t74 8t40 46q2 22 -10 39t-33 28t-49 17t-54 6 q-34 -34 -38 -51t-14 -35z" />
<glyph unicode="&#xc6;" horiz-adv-x="1778" d="M20 60q14 32 35 82t44 110t47 124t47 122t43 104t34 70q-4 12 -15 17t-24 11t-23 17t-10 37q4 32 20 50t40 28t51 13t55 3q30 74 55 130t47 101t44 86t44 87t45 101t51 129q10 12 36 36t57 43t61 25t48 -16l2 -106q54 12 132 22t164 19t174 16t162 11t129 7t75 3t44 -2 t43 -9t32 -22t13 -41q0 -40 -38 -61t-102 -30t-145 -9t-167 1t-170 1t-153 -9t-115 -28t-56 -57q6 -24 4 -56t-6 -69t-6 -79t6 -90q54 -4 125 -3t147 3t151 5t135 5q0 -62 -19 -96t-95 -56q-28 -6 -90 -8t-132 -2t-132 -1t-90 -3q4 -120 4 -252t-6 -238q2 -74 0 -146 q46 2 106 1t127 -3t136 -4t132 2t115 13t88 27q40 0 58 -14t19 -37t-10 -49t-29 -50l-752 -76q-54 -30 -83 -4t-42 87t-15 145t2 169t7 162t1 125q-16 2 -54 2h-81t-81 -1t-52 -3q-4 0 -14 -13t-40 -76t-87 -192t-153 -363zM516 828l230 6v6q0 4 1 6t1 4q0 38 -3 102t-7 134 t-8 136t-4 106q-78 -182 -121 -282t-62 -148t-23 -59z" />
<glyph unicode="&#xc7;" horiz-adv-x="1062" d="M48 708q0 148 50 291t127 259t171 192t183 87t162 -55t107 -234q-4 0 -18 2t-31 5t-31 6t-18 5q-62 102 -128 119t-129 -24t-118 -125t-95 -182t-61 -195t-15 -165q4 -44 8 -101t15 -120t30 -126t52 -115t81 -89t118 -49q66 0 120 36t105 80t102 80t111 36q14 4 24 -2 t15 -16t3 -22t-12 -18q-50 -54 -100 -110t-106 -101t-120 -74t-142 -29q-84 0 -151 37t-118 97t-87 139t-59 162t-34 166t-11 153zM284 -298q38 48 57 59t29 1t18 -36t23 -51t43 -43t80 -14q36 8 65 26t29 36q0 46 -38 77t-83 59t-82 58t-37 76q0 66 23 92t50 20t50 -37 t23 -75q0 -48 41 -79t90 -59t90 -59t41 -79q0 -38 -32 -75t-82 -62t-108 -33t-108 10q-44 0 -80 18t-61 46t-36 61t-5 63z" />
<glyph unicode="&#xc8;" horiz-adv-x="1018" d="M56 114l16 1312q4 18 67 33t158 28t207 23t214 17t179 11t103 4q20 0 44 -2t43 -9t32 -22t13 -41q0 -40 -38 -61t-102 -30t-145 -9t-167 1t-170 1t-153 -9t-115 -28t-56 -57q6 -24 4 -56t-6 -69t-6 -79t6 -90q54 -4 125 -3t147 3t151 5t135 5q0 -62 -19 -96t-95 -56 q-28 -6 -90 -8t-132 -2t-132 -1t-90 -3q2 -84 4 -177t0 -180t-7 -160t-15 -119q44 4 104 3t128 -4t140 -4t137 1t120 11t91 29q40 0 58 -14t19 -37t-10 -49t-29 -50l-754 -76q-16 -2 -37 9t-39 29t-30 38t-8 38zM277 1840q1 26 14 44t36 26t57 -2l286 -214q8 -50 -15 -82 t-69 -28q-34 18 -73 47t-79 59t-78 57t-68 41q-12 26 -11 52z" />
<glyph unicode="&#xc9;" horiz-adv-x="986" d="M56 114l16 1312q4 18 67 33t158 28t207 23t214 17t179 11t103 4q20 0 44 -2t43 -9t32 -22t13 -41q0 -40 -38 -61t-102 -30t-145 -9t-167 1t-170 1t-153 -9t-115 -28t-56 -57q6 -24 4 -56t-6 -69t-6 -79t6 -90q54 -4 125 -3t147 3t151 5t135 5q0 -62 -19 -96t-95 -56 q-28 -6 -90 -8t-132 -2t-132 -1t-90 -3q2 -84 4 -177t0 -180t-7 -160t-15 -119q44 4 104 3t128 -4t140 -4t137 1t120 11t91 29q40 0 58 -14t19 -37t-10 -49t-29 -50l-754 -76q-16 -2 -37 9t-39 29t-30 38t-8 38zM296 1690l286 214q32 10 56 2t37 -26t14 -44t-11 -52 q-30 -14 -68 -41t-78 -57t-79 -59t-73 -47q-46 -4 -69 28t-15 82z" />
<glyph unicode="&#xca;" horiz-adv-x="992" d="M56 114l16 1312q4 18 67 33t158 28t207 23t214 17t179 11t103 4q20 0 44 -2t43 -9t32 -22t13 -41q0 -40 -38 -61t-102 -30t-145 -9t-167 1t-170 1t-153 -9t-115 -28t-56 -57q6 -24 4 -56t-6 -69t-6 -79t6 -90q54 -4 125 -3t147 3t151 5t135 5q0 -62 -19 -96t-95 -56 q-28 -6 -90 -8t-132 -2t-132 -1t-90 -3q2 -84 4 -177t0 -180t-7 -160t-15 -119q44 4 104 3t128 -4t140 -4t137 1t120 11t91 29q40 0 58 -14t19 -37t-10 -49t-29 -50l-754 -76q-16 -2 -37 9t-39 29t-30 38t-8 38zM280 1730l158 204q6 16 24 29t40 19t42 2t30 -20l192 -244 q0 -46 -14 -68t-33 -29t-42 -3t-43 10q-34 40 -62 78t-62 84l-100 -140q-70 -44 -108 -25t-22 103z" />
<glyph unicode="&#xcb;" horiz-adv-x="972" d="M58 132l16 1312q4 18 67 33t158 28t207 23t214 17t179 11t103 4q20 0 44 -2t43 -9t32 -22t13 -41q0 -40 -38 -61t-102 -30t-145 -9t-167 1t-170 1t-153 -9t-115 -28t-56 -57q6 -24 4 -56t-6 -69t-6 -79t6 -90q54 -4 125 -3t147 3t151 5t135 5q0 -62 -19 -96t-95 -56 q-28 -6 -90 -8t-132 -2t-132 -1t-90 -3q2 -84 4 -177t0 -180t-7 -160t-15 -119q44 4 104 3t128 -4t140 -4t137 1t120 11t91 29q40 0 58 -14t19 -37t-10 -49t-29 -50l-754 -76q-16 -2 -37 9t-39 29t-30 38t-8 38zM286 2702q14 0 41 -1.5t54.5 6.5t48 27t20.5 58q0 18 -3 40 t-9 41t-16.5 32t-28.5 13q-29 0 -48.5 -23t-33 -56.5t-19.5 -71t-6 -65.5zM563 2702q13 0 40.5 -1.5t54.5 6.5t47.5 27t20.5 58q0 18 -3 40t-8.5 41t-16.5 32t-28 13q-29 0 -48.5 -23t-33.5 -56.5t-19.5 -71t-5.5 -65.5z" />
<glyph unicode="&#xcc;" horiz-adv-x="1328" d="M39 1269q-9 17 29 45q140 40 269 81t257 74t259 54t277 21q22 0 54 -17t42 -57q-28 -42 -76 -59t-103 -21t-112 -4t-104 -7t-81 -29t-40 -72q-12 -142 -21 -276t-13 -267t-3 -268t7 -275q40 0 95 1t116 4t123 9t114 16h40t51 -4t43 -16t18 -36q0 -38 -42 -58 q-30 -18 -115 -33t-194 -29t-229 -24t-222 -18t-173 -13t-81 -5q-60 6 -87 21t-31 34t9 38t30 34t31 22t14 3l292 44q32 138 48 277t23 281t7 285t-2 289q-66 -18 -124 -33t-115 -26t-118 -16t-131 -3q-22 16 -31 33zM337 1806q1 26 14 44t36 26t57 -2l286 -214 q8 -50 -15 -82t-69 -28q-34 18 -73 47t-79 59t-78 57t-68 41q-12 26 -11 52z" />
<glyph unicode="&#xcd;" horiz-adv-x="1302" d="M45 1289q-9 17 29 45q140 40 269 81t257 74t259 54t277 21q22 0 54 -17t42 -57q-28 -42 -76 -59t-103 -21t-112 -4t-104 -7t-81 -29t-40 -72q-12 -142 -21 -276t-13 -267t-3 -268t7 -275q40 0 95 1t116 4t123 9t114 16h40t51 -4t43 -16t18 -36q0 -38 -42 -58 q-30 -18 -115 -33t-194 -29t-229 -24t-222 -18t-173 -13t-81 -5q-60 6 -87 21t-31 34t9 38t30 34t31 22t14 3l292 44q32 138 48 277t23 281t7 285t-2 289q-66 -18 -124 -33t-115 -26t-118 -16t-131 -3q-22 16 -31 33zM462 1626l286 214q32 10 56 2t37 -26t14 -44t-11 -52 q-30 -14 -68 -41t-78 -57t-79 -59t-73 -47q-46 -4 -69 28t-15 82z" />
<glyph unicode="&#xce;" horiz-adv-x="1222" d="M39 1275q-9 17 29 45q140 40 269 81t257 74t259 54t277 21q22 0 54 -17t42 -57q-28 -42 -76 -59t-103 -21t-112 -4t-104 -7t-81 -29t-40 -72q-12 -142 -21 -276t-13 -267t-3 -268t7 -275q40 0 95 1t116 4t123 9t114 16h40t51 -4t43 -16t18 -36q0 -38 -42 -58 q-30 -18 -115 -33t-194 -29t-229 -24t-222 -18t-173 -13t-81 -5q-60 6 -87 21t-31 34t9 38t30 34t31 22t14 3l292 44q32 138 48 277t23 281t7 285t-2 289q-66 -18 -124 -33t-115 -26t-118 -16t-131 -3q-22 16 -31 33zM360 1674l158 204q6 16 24 29t40 19t42 2t30 -20 l192 -244q0 -46 -14 -68t-33 -29t-42 -3t-43 10q-34 40 -62 78t-62 84l-100 -140q-70 -44 -108 -25t-22 103z" />
<glyph unicode="&#xcf;" horiz-adv-x="1236" d="M51 1275q-9 17 29 45q140 40 269 81t257 74t259 54t277 21q22 0 54 -17t42 -57q-28 -42 -76 -59t-103 -21t-112 -4t-104 -7t-81 -29t-40 -72q-12 -142 -21 -276t-13 -267t-3 -268t7 -275q40 0 95 1t116 4t123 9t114 16h40t51 -4t43 -16t18 -36q0 -38 -42 -58 q-30 -18 -115 -33t-194 -29t-229 -24t-222 -18t-173 -13t-81 -5q-60 6 -87 21t-31 34t9 38t30 34t31 22t14 3l292 44q32 138 48 277t23 281t7 285t-2 289q-66 -18 -124 -33t-115 -26t-118 -16t-131 -3q-22 16 -31 33zM390 1734q14 0 42 1t56 -5t49 -21t21 -45q0 -14 -3 -31 t-9 -32t-17 -25t-29 -10q-30 0 -50 18t-34 44t-20 55t-6 51zM674 1734q14 0 42 1t56 -5t49 -21t21 -45q0 -14 -3 -31t-9 -32t-17 -25t-29 -10q-30 0 -50 18t-34 44t-20 55t-6 51z" />
<glyph unicode="&#xd0;" horiz-adv-x="1218" d="M-114 792q0 16 11 24t25 11t28 2t20 -1q50 -6 66 -7t19 -1t6 1t27 -1l-10 498q-8 12 -10 31t-1 40t3 41t2 32q0 30 26 45t65 18t86 -1t89 -11t74 -13t42 -6q150 0 280 -61t226 -166t151 -244t55 -293q-8 -96 -58 -196t-130 -192t-184 -169t-219 -123t-235 -56t-234 30 l-16 692q-38 2 -51 2h-23h-28t-66 4q-4 2 -10 11t-12 21t-10 22t-4 16zM220 1368l14 -552l246 -18q30 -4 56 -15t40 -26t13 -35t-21 -42q-82 10 -119 14t-62 5t-55 2t-96 5l14 -580h38q70 0 153 25t168 68t165 102t142 127t99 141t37 145q0 44 -17 115t-54 149t-99 153 t-155 131t-218 82t-289 4z" />
<glyph unicode="&#xd1;" horiz-adv-x="1180" d="M69 1169q1 95 9 146t25 68t49 17q24 0 44 -5t30 -37q56 -108 128 -255t158 -302t181 -301t195 -250l104 1216q20 54 46 70t50 14t41 -11l17 -9q-10 -28 -16 -59t-11 -87t-12 -148t-18 -240t-28 -363t-41 -519q-4 -46 -42 -63t-72 -17q-56 0 -86 31t-66 85l-546 868v-980 q0 -14 -12 -22t-27 -12t-31 -5t-24 -1q-4 0 -19 1t-19 1q2 312 -1 537t-5 381t-1 251zM106 1596q16 44 32 101t38 108t56 87t86 36q30 0 70 -5t91 -30t116 -76t145 -141q62 -30 89 -10t34 60t1 86t-6 70q10 20 30 30t42 8t40 -18t26 -48q4 -70 -3 -133t-34 -108t-77 -69 t-132 -14q-50 6 -89 30t-71 55t-60 67t-57 65t-60 49t-69 20q-54 -22 -73 -58t-22 -73t2 -68t-1 -43q-14 -26 -38 -37t-47 -7t-40 21t-19 45z" />
<glyph unicode="&#xd2;" horiz-adv-x="1076" d="M52 482q0 66 14 169t42 219t72 233t105 210t138 152t173 59q82 0 144 -40t107 -106t75 -150t48 -171t26 -170t8 -145q0 -132 -46 -265t-131 -239t-205 -173t-266 -67q-88 0 -146 51t-93 126t-50 158t-15 149zM204 480q0 -62 7 -122t30 -106t65 -75t112 -29q94 2 174 46 t139 122t91 185t30 235q0 58 -2 128t-12 140t-30 136t-56 117t-91 82t-133 31q-44 0 -85 -55t-77 -140t-66 -189t-51 -203t-33 -181t-12 -122zM295 1834q1 26 14 44t36 26t57 -2l286 -214q8 -50 -15 -82t-69 -28q-34 18 -73 47t-79 59t-78 57t-68 41q-12 26 -11 52z" />
<glyph unicode="&#xd3;" horiz-adv-x="1076" d="M52 482q0 66 14 169t42 219t72 233t105 210t138 152t173 59q82 0 144 -40t107 -106t75 -150t48 -171t26 -170t8 -145q0 -132 -46 -265t-131 -239t-205 -173t-266 -67q-88 0 -146 51t-93 126t-50 158t-15 149zM204 480q0 -62 7 -122t30 -106t65 -75t112 -29q94 2 174 46 t139 122t91 185t30 235q0 58 -2 128t-12 140t-30 136t-56 117t-91 82t-133 31q-44 0 -85 -55t-77 -140t-66 -189t-51 -203t-33 -181t-12 -122zM304 1650l286 214q32 10 56 2t37 -26t14 -44t-11 -52q-30 -14 -68 -41t-78 -57t-79 -59t-73 -47q-46 -4 -69 28t-15 82z" />
<glyph unicode="&#xd4;" horiz-adv-x="1076" d="M52 482q0 66 14 169t42 219t72 233t105 210t138 152t173 59q82 0 144 -40t107 -106t75 -150t48 -171t26 -170t8 -145q0 -132 -46 -265t-131 -239t-205 -173t-266 -67q-88 0 -146 51t-93 126t-50 158t-15 149zM204 480q0 -62 7 -122t30 -106t65 -75t112 -29q94 2 174 46 t139 122t91 185t30 235q0 58 -2 128t-12 140t-30 136t-56 117t-91 82t-133 31q-44 0 -85 -55t-77 -140t-66 -189t-51 -203t-33 -181t-12 -122zM330 1704l158 204q6 16 24 29t40 19t42 2t30 -20l192 -244q0 -46 -14 -68t-33 -29t-42 -3t-43 10q-34 40 -62 78t-62 84 l-100 -140q-70 -44 -108 -25t-22 103z" />
<glyph unicode="&#xd5;" horiz-adv-x="1076" d="M52 482q0 66 14 169t42 219t72 233t105 210t138 152t173 59q82 0 144 -40t107 -106t75 -150t48 -171t26 -170t8 -145q0 -132 -46 -265t-131 -239t-205 -173t-266 -67q-88 0 -146 51t-93 126t-50 158t-15 149zM156 1636q16 44 32 101t38 108t56 87t86 36q30 0 70 -5 t91 -30t116 -76t145 -141q62 -30 89 -10t34 60t1 86t-6 70q10 20 30 30t42 8t40 -18t26 -48q4 -70 -3 -133t-34 -108t-77 -69t-132 -14q-50 6 -89 30t-71 55t-60 67t-57 65t-60 49t-69 20q-54 -22 -73 -58t-22 -73t2 -68t-1 -43q-14 -26 -38 -37t-47 -7t-40 21t-19 45z M204 480q0 -62 7 -122t30 -106t65 -75t112 -29q94 2 174 46t139 122t91 185t30 235q0 58 -2 128t-12 140t-30 136t-56 117t-91 82t-133 31q-44 0 -85 -55t-77 -140t-66 -189t-51 -203t-33 -181t-12 -122z" />
<glyph unicode="&#xd6;" horiz-adv-x="1076" d="M52 482q0 66 14 169t42 219t72 233t105 210t138 152t173 59q82 0 144 -40t107 -106t75 -150t48 -171t26 -170t8 -145q0 -132 -46 -265t-131 -239t-205 -173t-266 -67q-88 0 -146 51t-93 126t-50 158t-15 149zM204 480q0 -62 7 -122t30 -106t65 -75t112 -29q94 2 174 46 t139 122t91 185t30 235q0 58 -2 128t-12 140t-30 136t-56 117t-91 82t-133 31q-44 0 -85 -55t-77 -140t-66 -189t-51 -203t-33 -181t-12 -122zM338 1778q14 0 42 1t56 -5t49 -21t21 -45q0 -14 -3 -31t-9 -32t-17 -25t-29 -10q-30 0 -50 18t-34 44t-20 55t-6 51zM622 1778 q14 0 42 1t56 -5t49 -21t21 -45q0 -14 -3 -31t-9 -32t-17 -25t-29 -10q-30 0 -50 18t-34 44t-20 55t-6 51z" />
<glyph unicode="&#xd8;" horiz-adv-x="1076" d="M44 60q0 4 1 11t1 9l848 1464q30 -16 58 -39t24 -61l-816 -1440q0 -2 -13 -4t-19 -2q-30 0 -57 14t-27 48zM52 482q0 66 14 169t42 219t72 233t105 210t138 152t173 59q82 0 144 -40t107 -106t75 -150t48 -171t26 -170t8 -145q0 -132 -46 -265t-131 -239t-205 -173 t-266 -67q-88 0 -146 51t-93 126t-50 158t-15 149zM204 480q0 -62 7 -122t30 -106t65 -75t112 -29q94 2 174 46t139 122t91 185t30 235q0 58 -2 128t-12 140t-30 136t-56 117t-91 82t-133 31q-44 0 -85 -55t-77 -140t-66 -189t-51 -203t-33 -181t-12 -122z" />
<glyph unicode="&#xd9;" horiz-adv-x="1024" d="M60 952q-2 156 0 303t0 259q6 20 21 22t34 -3t39 -13t36 -10q12 -84 12 -207t-2 -262t0 -282t19 -263t53 -206t103 -114t168 17t249 185q-8 130 -13 276t-1 298t24 303t62 289q34 0 66 1t48 -39q-30 -124 -46 -206t-23 -152t-7 -147v-191q0 -104 7 -206t16 -204t17 -204 t8 -206q-38 0 -72 15t-57 42t-32 63t3 78q-160 -136 -277 -175t-198 -6t-130 126t-77 223t-38 285t-12 311zM283 1854q1 26 14 44t36 26t57 -2l286 -214q8 -50 -15 -82t-69 -28q-34 18 -73 47t-79 59t-78 57t-68 41q-12 26 -11 52z" />
<glyph unicode="&#xda;" horiz-adv-x="1012" d="M60 952q-2 156 0 303t0 259q6 20 21 22t34 -3t39 -13t36 -10q12 -84 12 -207t-2 -262t0 -282t19 -263t53 -206t103 -114t168 17t249 185q-8 130 -13 276t-1 298t24 303t62 289q34 0 66 1t48 -39q-30 -124 -46 -206t-23 -152t-7 -147v-191q0 -104 7 -206t16 -204t17 -204 t8 -206q-38 0 -72 15t-57 42t-32 63t3 78q-160 -136 -277 -175t-198 -6t-130 126t-77 223t-38 285t-12 311zM308 1668l286 214q32 10 56 2t37 -26t14 -44t-11 -52q-30 -14 -68 -41t-78 -57t-79 -59t-73 -47q-46 -4 -69 28t-15 82z" />
<glyph unicode="&#xdb;" horiz-adv-x="1024" d="M60 952q-2 156 0 303t0 259q6 20 21 22t34 -3t39 -13t36 -10q12 -84 12 -207t-2 -262t0 -282t19 -263t53 -206t103 -114t168 17t249 185q-8 130 -13 276t-1 298t24 303t62 289q34 0 66 1t48 -39q-30 -124 -46 -206t-23 -152t-7 -147v-191q0 -104 7 -206t16 -204t17 -204 t8 -206q-38 0 -72 15t-57 42t-32 63t3 78q-160 -136 -277 -175t-198 -6t-130 126t-77 223t-38 285t-12 311zM280 1670l158 204q6 16 24 29t40 19t42 2t30 -20l192 -244q0 -46 -14 -68t-33 -29t-42 -3t-43 10q-34 40 -62 78t-62 84l-100 -140q-70 -44 -108 -25t-22 103z" />
<glyph unicode="&#xdc;" horiz-adv-x="998" d="M60 952q-2 156 0 303t0 259q6 20 21 22t34 -3t39 -13t36 -10q12 -84 12 -207t-2 -262t0 -282t19 -263t53 -206t103 -114t168 17t249 185q-8 130 -13 276t-1 298t24 303t62 289q34 0 66 1t48 -39q-30 -124 -46 -206t-23 -152t-7 -147v-191q0 -104 7 -206t16 -204t17 -204 t8 -206q-38 0 -72 15t-57 42t-32 63t3 78q-160 -136 -277 -175t-198 -6t-130 126t-77 223t-38 285t-12 311zM228 1734q14 0 42 1t56 -5t49 -21t21 -45q0 -14 -3 -31t-9 -32t-17 -25t-29 -10q-30 0 -50 18t-34 44t-20 55t-6 51zM512 1734q14 0 42 1t56 -5t49 -21t21 -45 q0 -14 -3 -31t-9 -32t-17 -25t-29 -10q-30 0 -50 18t-34 44t-20 55t-6 51z" />
<glyph unicode="&#xdd;" horiz-adv-x="1154" d="M72 1496q6 20 19 29t28 11t33 1t34 -3q48 -104 101 -211t116 -209t137 -195t164 -169q84 208 142 349t94 232t56 138t29 68t11 24t4 3q84 0 84 -82q0 -6 -2 -20t-2 -16l-544 -1508q0 -2 -6 -3t-10 -1q-46 0 -73 37t-23 81q2 18 16 61t33 98t40 117t38 117t28 97t9 58 q-90 116 -168 219t-146 208t-128 219t-114 250zM426 1704l286 214q32 10 56 2t37 -26t14 -44t-11 -52q-30 -14 -68 -41t-78 -57t-79 -59t-73 -47q-46 -4 -69 28t-15 82z" />
<glyph unicode="&#xde;" horiz-adv-x="902" d="M70 1372q24 26 48 35t44 5t33 -19t17 -39v-58v-71t-1 -73t-1 -64q158 88 277 91t198 -52t122 -157t51 -223t-18 -248t-82 -234t-142 -181t-200 -88q-18 0 -72 -4t-112 -4l8 -280q-24 -26 -48 -35t-44 -5t-34 19t-16 39q6 16 4 52t-7 79t-10 89t-5 80zM204 650 q0 -88 5 -175t11 -170t12 -155h29t45 -1t46 -1h30q88 2 155 62t107 150t53 197t-3 204t-64 170t-128 95q-56 0 -106 -10t-90 -33t-65 -63t-31 -100q-6 -82 -6 -170z" />
<glyph unicode="&#xdf;" horiz-adv-x="1264" d="M104 173q0 173 4 338t8 331t4 358q0 98 34 165t94 108t143 59t183 16q46 0 92 -8t84 -29t61 -57t23 -96q-4 -56 -19 -107t-36 -94t-43 -78t-38 -61q60 -38 119 -60t114 -42t103 -41t83 -57t55 -91t20 -141q0 -134 -47 -242t-129 -185t-196 -119t-246 -44q-18 0 -28 22 t-8 49t15 52t39 29q98 18 186 46t154 78t105 126t39 188q0 80 -42 129t-104 76t-136 35t-136 8q-70 0 -147 -16t-139 -16q-68 4 -71 40t39 76q24 8 49 12t51 13t53 29t57 61t64 110t72 177q0 50 -32 76t-78 32t-100 -5t-100 -36t-77 -62t-31 -81q-18 -174 -25 -353t-8 -360 t1 -365t2 -366q0 -22 -20 -40t-44 -23t-44 7t-20 50q-6 206 -6 379z" />
<glyph unicode="&#xe0;" horiz-adv-x="1044" d="M52 526q-4 40 7 107t35 143t60 154t84 141t104 102t122 39q130 12 211 -51t133 -173l-6 -616q0 -44 28 -75t68 -51t87 -29t85 -9q28 2 40 -20t11 -49t-14 -51t-33 -26q-88 2 -150 16t-106 43t-76 72t-60 101q-24 -44 -59 -96t-80 -96t-96 -74t-107 -30q-94 0 -151 57 t-87 139t-40 173t-10 159zM198 510q0 -34 6 -94t23 -120t48 -104t83 -44q58 -6 98 31t72 109t62 174t66 228q24 152 0 239t-75 118t-117 8t-125 -94t-100 -185t-41 -266zM257 1564q1 26 14 44t36 26t57 -2l286 -214q8 -50 -15 -82t-69 -28q-34 18 -73 47t-79 59t-78 57 t-68 41q-12 26 -11 52z" />
<glyph unicode="&#xe1;" horiz-adv-x="1044" d="M52 526q-4 40 7 107t35 143t60 154t84 141t104 102t122 39q130 12 211 -51t133 -173l-6 -616q0 -44 28 -75t68 -51t87 -29t85 -9q28 2 40 -20t11 -49t-14 -51t-33 -26q-88 2 -150 16t-106 43t-76 72t-60 101q-24 -44 -59 -96t-80 -96t-96 -74t-107 -30q-94 0 -151 57 t-87 139t-40 173t-10 159zM198 510q0 -34 6 -94t23 -120t48 -104t83 -44q58 -6 98 31t72 109t62 174t66 228q24 152 0 239t-75 118t-117 8t-125 -94t-100 -185t-41 -266zM300 1424l286 214q32 10 56 2t37 -26t14 -44t-11 -52q-30 -14 -68 -41t-78 -57t-79 -59t-73 -47 q-46 -4 -69 28t-15 82z" />
<glyph unicode="&#xe2;" horiz-adv-x="1044" d="M52 526q-4 40 7 107t35 143t60 154t84 141t104 102t122 39q130 12 211 -51t133 -173l-6 -616q0 -44 28 -75t68 -51t87 -29t85 -9q28 2 40 -20t11 -49t-14 -51t-33 -26q-88 2 -150 16t-106 43t-76 72t-60 101q-24 -44 -59 -96t-80 -96t-96 -74t-107 -30q-94 0 -151 57 t-87 139t-40 173t-10 159zM198 510q0 -34 6 -94t23 -120t48 -104t83 -44q58 -6 98 31t72 109t62 174t66 228q24 152 0 239t-75 118t-117 8t-125 -94t-100 -185t-41 -266zM256 1406l158 204q6 16 24 29t40 19t42 2t30 -20l192 -244q0 -46 -14 -68t-33 -29t-42 -3t-43 10 q-34 40 -62 78t-62 84l-100 -140q-70 -44 -108 -25t-22 103z" />
<glyph unicode="&#xe3;" horiz-adv-x="1044" d="M46 1392q16 44 32 101t38 108t56 87t86 36q30 0 70 -5t91 -30t116 -76t145 -141q62 -30 89 -10t34 60t1 86t-6 70q10 20 30 30t42 8t40 -18t26 -48q4 -70 -3 -133t-34 -108t-77 -69t-132 -14q-50 6 -89 30t-71 55t-60 67t-57 65t-60 49t-69 20q-54 -22 -73 -58t-22 -73 t2 -68t-1 -43q-14 -26 -38 -37t-47 -7t-40 21t-19 45zM52 526q-4 40 7 107t35 143t60 154t84 141t104 102t122 39q130 12 211 -51t133 -173l-6 -616q0 -44 28 -75t68 -51t87 -29t85 -9q28 2 40 -20t11 -49t-14 -51t-33 -26q-88 2 -150 16t-106 43t-76 72t-60 101 q-24 -44 -59 -96t-80 -96t-96 -74t-107 -30q-94 0 -151 57t-87 139t-40 173t-10 159zM198 510q0 -34 6 -94t23 -120t48 -104t83 -44q58 -6 98 31t72 109t62 174t66 228q24 152 0 239t-75 118t-117 8t-125 -94t-100 -185t-41 -266z" />
<glyph unicode="&#xe4;" horiz-adv-x="1044" d="M52 526q-4 40 7 107t35 143t60 154t84 141t104 102t122 39q130 12 211 -51t133 -173l-6 -616q0 -44 28 -75t68 -51t87 -29t85 -9q28 2 40 -20t11 -49t-14 -51t-33 -26q-88 2 -150 16t-106 43t-76 72t-60 101q-24 -44 -59 -96t-80 -96t-96 -74t-107 -30q-94 0 -151 57 t-87 139t-40 173t-10 159zM198 510q0 -34 6 -94t23 -120t48 -104t83 -44q58 -6 98 31t72 109t62 174t66 228q24 152 0 239t-75 118t-117 8t-125 -94t-100 -185t-41 -266zM222 1424q14 0 42 1t56 -5t49 -21t21 -45q0 -14 -3 -31t-9 -32t-17 -25t-29 -10q-30 0 -50 18t-34 44 t-20 55t-6 51zM506 1424q14 0 42 1t56 -5t49 -21t21 -45q0 -14 -3 -31t-9 -32t-17 -25t-29 -10q-30 0 -50 18t-34 44t-20 55t-6 51z" />
<glyph unicode="&#xe5;" horiz-adv-x="1044" d="M52 526q-4 40 7 107t35 143t60 154t84 141t104 102t122 39q130 12 211 -51t133 -173l-6 -616q0 -44 28 -75t68 -51t87 -29t85 -9q28 2 40 -20t11 -49t-14 -51t-33 -26q-88 2 -150 16t-106 43t-76 72t-60 101q-24 -44 -59 -96t-80 -96t-96 -74t-107 -30q-94 0 -151 57 t-87 139t-40 173t-10 159zM198 510q0 -34 6 -94t23 -120t48 -104t83 -44q58 -6 98 31t72 109t62 174t66 228q24 152 0 239t-75 118t-117 8t-125 -94t-100 -185t-41 -266zM262 1478q0 60 39 104t97 66q36 14 87 -2t99 -48t83 -71t35 -73q2 -54 -30 -92t-81 -59t-107 -23 t-107 19t-82 65t-33 114zM370 1460q-10 -22 18 -38t66 -20t74 8t40 46q2 22 -10 39t-33 28t-49 17t-54 6q-34 -34 -38 -51t-14 -35z" />
<glyph unicode="&#xe6;" horiz-adv-x="1444" d="M56 544q-4 40 6 109t32 148t56 161t80 149t101 108t121 41q122 10 200 -45t130 -153q46 72 119 111t205 39q92 0 155 -42t63 -142q0 -110 -43 -186t-114 -129t-159 -87t-178 -60q0 -10 -1 -38t-1 -38q4 -70 18 -123t36 -93q18 -52 45 -85t80 -46t140 -6t225 35 q38 8 54 -4t9 -33t-37 -49t-84 -51t-131 -39t-179 -14q-100 0 -152 29t-81 75t-44 105t-41 121q-24 -44 -59 -96t-80 -96t-96 -74t-107 -30q-94 0 -151 57t-87 139t-40 173t-10 159zM202 528q0 -34 6 -94t23 -120t48 -104t83 -44q58 -6 98 31t72 109t62 174t66 228 q34 164 15 258t-68 127t-117 8t-130 -100t-108 -195t-50 -278zM828 772q0 -16 7 -36t31 -20q48 0 102 23t99 59t75 83t30 95q0 50 -10 85t-66 35q-70 0 -120 -26t-83 -71t-49 -104t-16 -123z" />
<glyph unicode="&#xe7;" horiz-adv-x="792" d="M54 696q0 68 11 153t44 159t91 124t154 50q60 0 113 -22t92 -62t62 -94t23 -116q-56 0 -88 22t-58 49t-51 49t-65 22q-72 0 -108 -36t-52 -88t-17 -109t-1 -101t5 -102t19 -119t36 -119t56 -104t81 -74t109 -28q32 0 56 13t47 30t48 30t57 13q0 -48 -25 -92t-63 -76 t-86 -51t-92 -19q-70 0 -127 38t-101 98t-76 136t-53 154t-31 149t-10 123zM206 -246q38 48 57 59t29 1t18 -36t23 -51t43 -43t80 -14q36 8 65 26t29 36q0 46 -38 77t-83 59t-82 58t-37 76q0 66 23 92t50 20t50 -37t23 -75q0 -48 41 -79t90 -59t90 -59t41 -79q0 -38 -32 -75 t-82 -62t-108 -33t-108 10q-44 0 -80 18t-61 46t-36 61t-5 63z" />
<glyph unicode="&#xe8;" horiz-adv-x="824" d="M-188 875q-4 33 2 47q0 24 13 41t30 24t35 3t30 -20q16 -112 41 -161t52 -66t51 -15t38 -4q6 110 29 201t72 155t129 99t202 33q92 0 155 -42t63 -142q0 -110 -45 -180t-118 -116t-163 -74t-180 -54q0 -4 2 -21t3 -36t3 -36t2 -21q12 -142 56 -219t103 -110t126 -33 t124 13t95 26t40 5q10 -26 2 -56t-41 -56t-97 -43t-164 -19q-86 0 -146 26t-102 71t-67 104t-41 125t-28 133t-24 129q-52 -8 -94 10t-75 51t-57 74t-38 81t-18 73zM217 1512q1 26 14 44t36 26t57 -2l286 -214q8 -50 -15 -82t-69 -28q-34 18 -73 47t-79 59t-78 57t-68 41 q-12 26 -11 52zM244 750q62 -4 134 21t132 64t98 85t32 86q-4 36 -30 63t-84 27q-70 0 -122 -30t-88 -79t-54 -111t-18 -126z" />
<glyph unicode="&#xe9;" horiz-adv-x="836" d="M-176 875q-4 33 2 47q0 24 13 41t30 24t35 3t30 -20q16 -112 41 -161t52 -66t51 -15t38 -4q6 110 29 201t72 155t129 99t202 33q92 0 155 -42t63 -142q0 -110 -45 -180t-118 -116t-163 -74t-180 -54q0 -4 2 -21t3 -36t3 -36t2 -21q12 -142 56 -219t103 -110t126 -33 t124 13t95 26t40 5q10 -26 2 -56t-41 -56t-97 -43t-164 -19q-86 0 -146 26t-102 71t-67 104t-41 125t-28 133t-24 129q-52 -8 -94 10t-75 51t-57 74t-38 81t-18 73zM242 1340l286 214q32 10 56 2t37 -26t14 -44t-11 -52q-30 -14 -68 -41t-78 -57t-79 -59t-73 -47 q-46 -4 -69 28t-15 82zM256 750q62 -4 134 21t132 64t98 85t32 86q-4 36 -30 63t-84 27q-70 0 -122 -30t-88 -79t-54 -111t-18 -126z" />
<glyph unicode="&#xea;" horiz-adv-x="816" d="M-196 875q-4 33 2 47q0 24 13 41t30 24t35 3t30 -20q16 -112 41 -161t52 -66t51 -15t38 -4q6 110 29 201t72 155t129 99t202 33q92 0 155 -42t63 -142q0 -110 -45 -180t-118 -116t-163 -74t-180 -54q0 -4 2 -21t3 -36t3 -36t2 -21q12 -142 56 -219t103 -110t126 -33 t124 13t95 26t40 5q10 -26 2 -56t-41 -56t-97 -43t-164 -19q-86 0 -146 26t-102 71t-67 104t-41 125t-28 133t-24 129q-52 -8 -94 10t-75 51t-57 74t-38 81t-18 73zM186 1374l158 204q6 16 24 29t40 19t42 2t30 -20l192 -244q0 -46 -14 -68t-33 -29t-42 -3t-43 10 q-34 40 -62 78t-62 84l-100 -140q-70 -44 -108 -25t-22 103zM236 750q62 -4 134 21t132 64t98 85t32 86q-4 36 -30 63t-84 27q-70 0 -122 -30t-88 -79t-54 -111t-18 -126z" />
<glyph unicode="&#xeb;" horiz-adv-x="816" d="M-196 875q-4 33 2 47q0 24 13 41t30 24t35 3t30 -20q16 -112 41 -161t52 -66t51 -15t38 -4q6 110 29 201t72 155t129 99t202 33q92 0 155 -42t63 -142q0 -110 -45 -180t-118 -116t-163 -74t-180 -54q0 -4 2 -21t3 -36t3 -36t2 -21q12 -142 56 -219t103 -110t126 -33 t124 13t95 26t40 5q10 -26 2 -56t-41 -56t-97 -43t-164 -19q-86 0 -146 26t-102 71t-67 104t-41 125t-28 133t-24 129q-52 -8 -94 10t-75 51t-57 74t-38 81t-18 73zM192 1456q14 0 42 1t56 -5t49 -21t21 -45q0 -14 -3 -31t-9 -32t-17 -25t-29 -10q-30 0 -50 18t-34 44 t-20 55t-6 51zM236 750q62 -4 134 21t132 64t98 85t32 86q-4 36 -30 63t-84 27q-70 0 -122 -30t-88 -79t-54 -111t-18 -126zM476 1456q14 0 42 1t56 -5t49 -21t21 -45q0 -14 -3 -31t-9 -32t-17 -25t-29 -10q-30 0 -50 18t-34 44t-20 55t-6 51z" />
<glyph unicode="&#xec;" horiz-adv-x="302" d="M-35 1460q1 26 14 44t36 26t57 -2l286 -214q8 -50 -15 -82t-69 -28q-34 18 -73 47t-79 59t-78 57t-68 41q-12 26 -11 52zM80 1076q-2 20 11 29t32 11t39 0t32 -2q30 -104 45 -245t22 -290t7 -291v-250h-154z" />
<glyph unicode="&#xed;" horiz-adv-x="302" d="M-50 1360l286 214q32 10 56 2t37 -26t14 -44t-11 -52q-30 -14 -68 -41t-78 -57t-79 -59t-73 -47q-46 -4 -69 28t-15 82zM86 1096q-2 20 11 29t32 11t39 0t32 -2q30 -104 44 -248t20 -297t5 -298t-1 -253h-154z" />
<glyph unicode="&#xee;" horiz-adv-x="302" d="M-106 1348l158 204q6 16 24 29t40 19t42 2t30 -20l192 -244q0 -46 -14 -68t-33 -29t-42 -3t-43 10q-34 40 -62 78t-62 84l-100 -140q-70 -44 -108 -25t-22 103zM66 1070q-2 20 11 29t32 11t39 0t32 -2q30 -104 47 -244t26 -288t12 -289t3 -249h-154z" />
<glyph unicode="&#xef;" horiz-adv-x="302" d="M-66 1436q14 0 42 1t56 -5t49 -21t21 -45q0 -14 -3 -31t-9 -32t-17 -25t-29 -10q-30 0 -50 18t-34 44t-20 55t-6 51zM92 1090q-2 20 11 29t32 11t39 0t32 -2q30 -104 43 -247t18 -295t3 -296t-2 -252h-154zM218 1436q14 0 42 1t56 -5t49 -21t21 -45q0 -14 -3 -31t-9 -32 t-17 -25t-29 -10q-30 0 -50 18t-34 44t-20 55t-6 51z" />
<glyph unicode="&#xf1;" horiz-adv-x="1056" d="M30 1308q16 44 32 101t38 108t56 87t86 36q30 0 70 -5t91 -30t116 -76t145 -141q62 -30 89 -10t34 60t1 86t-6 70q10 20 30 30t42 8t40 -18t26 -48q4 -70 -3 -133t-34 -108t-77 -69t-132 -14q-50 6 -89 30t-71 55t-60 67t-57 65t-60 49t-69 20q-54 -22 -73 -58t-22 -73 t2 -68t-1 -43q-14 -26 -38 -37t-47 -7t-40 21t-19 45zM48 1144q-2 22 16 31t44 12t51 0t39 -5q-2 -14 -2 -47t2 -77t7 -91t13 -87q38 32 89 78t108 88t118 71t119 29q66 0 112 -34t78 -86t49 -112t25 -110q2 -10 3 -57t2 -115t2 -148t4 -155t6 -139t7 -98v-22q0 -34 -24 -45 t-52 -11q-24 0 -45 4t-31 36q-2 24 -3 82t-3 134t-3 159t-3 159t-5 134t-7 82q-4 28 -14 62t-28 63t-44 49t-62 20q-58 0 -116 -40t-110 -92t-93 -102t-61 -72q0 -60 -2 -136t-5 -156t-5 -158t0 -140q0 -20 -1 -39t-8 -36t-23 -29t-46 -20q-16 -4 -44 10t-30 28z" />
<glyph unicode="&#xf2;" horiz-adv-x="830" d="M27 492q3 84 18 179t45 191t76 171t110 117t146 30q122 0 198 -35t119 -98t62 -149t25 -188q10 -66 4 -147t-28 -163t-60 -157t-91 -132t-122 -89t-153 -24q-82 0 -146 27t-107 75t-66 114t-23 144q-10 50 -7 134zM174 426q0 -52 7 -101t28 -89t58 -64t97 -24 q80 0 141 64t103 154t63 184t21 154q0 98 -23 166t-57 110t-75 61t-77 23q-46 0 -86 -36t-73 -93t-58 -128t-41 -142t-23 -134t-5 -105zM227 1530q1 26 14 44t36 26t57 -2l286 -214q8 -50 -15 -82t-69 -28q-34 18 -73 47t-79 59t-78 57t-68 41q-12 26 -11 52z" />
<glyph unicode="&#xf3;" horiz-adv-x="830" d="M27 492q3 84 18 179t45 191t76 171t110 117t146 30q122 0 198 -35t119 -98t62 -149t25 -188q10 -66 4 -147t-28 -163t-60 -157t-91 -132t-122 -89t-153 -24q-82 0 -146 27t-107 75t-66 114t-23 144q-10 50 -7 134zM174 426q0 -52 7 -101t28 -89t58 -64t97 -24 q80 0 141 64t103 154t63 184t21 154q0 98 -23 166t-57 110t-75 61t-77 23q-46 0 -86 -36t-73 -93t-58 -128t-41 -142t-23 -134t-5 -105zM226 1360l286 214q32 10 56 2t37 -26t14 -44t-11 -52q-30 -14 -68 -41t-78 -57t-79 -59t-73 -47q-46 -4 -69 28t-15 82z" />
<glyph unicode="&#xf4;" horiz-adv-x="830" d="M27 492q3 84 18 179t45 191t76 171t110 117t146 30q122 0 198 -35t119 -98t62 -149t25 -188q10 -66 4 -147t-28 -163t-60 -157t-91 -132t-122 -89t-153 -24q-82 0 -146 27t-107 75t-66 114t-23 144q-10 50 -7 134zM138 1368l158 204q6 16 24 29t40 19t42 2t30 -20 l192 -244q0 -46 -14 -68t-33 -29t-42 -3t-43 10q-34 40 -62 78t-62 84l-100 -140q-70 -44 -108 -25t-22 103zM174 426q0 -52 7 -101t28 -89t58 -64t97 -24q80 0 141 64t103 154t63 184t21 154q0 98 -23 166t-57 110t-75 61t-77 23q-46 0 -86 -36t-73 -93t-58 -128t-41 -142 t-23 -134t-5 -105z" />
<glyph unicode="&#xf5;" horiz-adv-x="830" d="M16 1276q16 44 32 101t38 108t56 87t86 36q30 0 70 -5t91 -30t116 -76t145 -141q62 -30 89 -10t34 60t1 86t-6 70q10 20 30 30t42 8t40 -18t26 -48q4 -70 -3 -133t-34 -108t-77 -69t-132 -14q-50 6 -89 30t-71 55t-60 67t-57 65t-60 49t-69 20q-54 -22 -73 -58t-22 -73 t2 -68t-1 -43q-14 -26 -38 -37t-47 -7t-40 21t-19 45zM27 492q3 84 18 179t45 191t76 171t110 117t146 30q122 0 198 -35t119 -98t62 -149t25 -188q10 -66 4 -147t-28 -163t-60 -157t-91 -132t-122 -89t-153 -24q-82 0 -146 27t-107 75t-66 114t-23 144q-10 50 -7 134z M174 426q0 -52 7 -101t28 -89t58 -64t97 -24q80 0 141 64t103 154t63 184t21 154q0 98 -23 166t-57 110t-75 61t-77 23q-46 0 -86 -36t-73 -93t-58 -128t-41 -142t-23 -134t-5 -105z" />
<glyph unicode="&#xf6;" horiz-adv-x="830" d="M27 492q3 84 18 179t45 191t76 171t110 117t146 30q122 0 198 -35t119 -98t62 -149t25 -188q10 -66 4 -147t-28 -163t-60 -157t-91 -132t-122 -89t-153 -24q-82 0 -146 27t-107 75t-66 114t-23 144q-10 50 -7 134zM174 426q0 -52 7 -101t28 -89t58 -64t97 -24 q80 0 141 64t103 154t63 184t21 154q0 98 -23 166t-57 110t-75 61t-77 23q-46 0 -86 -36t-73 -93t-58 -128t-41 -142t-23 -134t-5 -105zM194 1456q14 0 42 1t56 -5t49 -21t21 -45q0 -14 -3 -31t-9 -32t-17 -25t-29 -10q-30 0 -50 18t-34 44t-20 55t-6 51zM478 1456 q14 0 42 1t56 -5t49 -21t21 -45q0 -14 -3 -31t-9 -32t-17 -25t-29 -10q-30 0 -50 18t-34 44t-20 55t-6 51z" />
<glyph unicode="&#xf7;" horiz-adv-x="760" d="M20 599q-6 23 3 45t29 41t42 27q20 2 61 5t93 6t109 8t110 8t94 6t61 5h22q34 0 46 -25t12 -53q0 -24 -11 -38t-28 -21t-38 -9t-41 -4t-61 -5t-94 -6t-110 -8t-109 -8t-93 -6t-61 -5q-30 14 -36 37zM292 956q0 36 30 66t66 30q30 0 45 -20t20 -48t5 -56v-42h-43t-55 5 t-48 20t-20 45zM294 296q22 46 48 63t68 17q34 0 53 -15t19 -65q0 -78 -54 -78q-38 0 -76 23t-58 55z" />
<glyph unicode="&#xf8;" horiz-adv-x="830" d="M-4 -3q0 3 1 9.5t1 7.5l713 1279q25 -14 48.5 -34t19.5 -54l-685 -1257q0 -2 -11 -3.5t-16 -1.5q-25 0 -48 12t-23 42zM27 492q3 84 18 179t45 191t76 171t110 117t146 30q122 0 198 -35t119 -98t62 -149t25 -188q10 -66 4 -147t-28 -163t-60 -157t-91 -132t-122 -89 t-153 -24q-82 0 -146 27t-107 75t-66 114t-23 144q-10 50 -7 134zM174 426q0 -52 7 -101t28 -89t58 -64t97 -24q80 0 141 64t103 154t63 184t21 154q0 98 -23 166t-57 110t-75 61t-77 23q-46 0 -86 -36t-73 -93t-58 -128t-41 -142t-23 -134t-5 -105z" />
<glyph unicode="&#xf9;" horiz-adv-x="914" d="M57 693q-5 119 5 225t32 176q4 0 19 2t19 2q24 0 44 -5t30 -37q-16 -204 1 -395t83 -381q42 -84 88 -105t91 4t87 87t78 144t63 175t42 179t16 158t-17 110q0 4 -6 21t-12 36t-12 36t-6 21q0 22 20 30t36 8q60 -26 92 -88t39 -149t-7 -189t-44 -205t-74 -200t-97 -173 t-113 -125t-120 -55q-98 6 -167 70t-114 163t-68 220t-28 240zM171 1460q1 26 14 44t36 26t57 -2l286 -214q8 -50 -15 -82t-69 -28q-34 18 -73 47t-79 59t-78 57t-68 41q-12 26 -11 52z" />
<glyph unicode="&#xfa;" horiz-adv-x="934" d="M57 693q-5 119 5 225t32 176q4 0 19 2t19 2q24 0 44 -5t30 -37q-16 -204 1 -395t83 -381q42 -84 88 -105t91 4t87 87t78 144t63 175t42 179t16 158t-17 110q0 4 -6 21t-12 36t-12 36t-6 21q0 22 20 30t36 8q60 -26 92 -88t39 -149t-7 -189t-44 -205t-74 -200t-97 -173 t-113 -125t-120 -55q-98 6 -167 70t-114 163t-68 220t-28 240zM194 1314l286 214q32 10 56 2t37 -26t14 -44t-11 -52q-30 -14 -68 -41t-78 -57t-79 -59t-73 -47q-46 -4 -69 28t-15 82z" />
<glyph unicode="&#xfb;" horiz-adv-x="922" d="M57 693q-5 119 5 225t32 176q4 0 19 2t19 2q24 0 44 -5t30 -37q-16 -204 1 -395t83 -381q42 -84 88 -105t91 4t87 87t78 144t63 175t42 179t16 158t-17 110q0 4 -6 21t-12 36t-12 36t-6 21q0 22 20 30t36 8q60 -26 92 -88t39 -149t-7 -189t-44 -205t-74 -200t-97 -173 t-113 -125t-120 -55q-98 6 -167 70t-114 163t-68 220t-28 240zM190 1316l158 204q6 16 24 29t40 19t42 2t30 -20l192 -244q0 -46 -14 -68t-33 -29t-42 -3t-43 10q-34 40 -62 78t-62 84l-100 -140q-70 -44 -108 -25t-22 103z" />
<glyph unicode="&#xfc;" horiz-adv-x="934" d="M57 693q-5 119 5 225t32 176q4 0 19 2t19 2q24 0 44 -5t30 -37q-16 -204 1 -395t83 -381q42 -84 88 -105t91 4t87 87t78 144t63 175t42 179t16 158t-17 110q0 4 -6 21t-12 36t-12 36t-6 21q0 22 20 30t36 8q60 -26 92 -88t39 -149t-7 -189t-44 -205t-74 -200t-97 -173 t-113 -125t-120 -55q-98 6 -167 70t-114 163t-68 220t-28 240zM200 1424q14 0 42 1t56 -5t49 -21t21 -45q0 -14 -3 -31t-9 -32t-17 -25t-29 -10q-30 0 -50 18t-34 44t-20 55t-6 51zM484 1424q14 0 42 1t56 -5t49 -21t21 -45q0 -14 -3 -31t-9 -32t-17 -25t-29 -10 q-30 0 -50 18t-34 44t-20 55t-6 51z" />
<glyph unicode="&#xfd;" horiz-adv-x="1102" d="M62 1068q0 32 8 63t50 31q22 0 33 -9t23 -31l396 -760l338 792q10 22 24 31t34 9q26 -2 40 -18t19 -40t4 -49t-7 -45l-588 -1520q-16 -28 -42 -41t-50 -12t-41 15t-17 38q36 138 95 293t117 301q-54 118 -102 215t-98 202t-107 231t-129 304zM370 1308l286 214 q32 10 56 2t37 -26t14 -44t-11 -52q-30 -14 -68 -41t-78 -57t-79 -59t-73 -47q-46 -4 -69 28t-15 82z" />
<glyph unicode="&#xfe;" horiz-adv-x="896" d="M44 1500q24 26 48 35t44 5t33 -19t17 -39v-89t-2 -99q158 88 277 91t198 -52t122 -157t51 -223t-18 -248t-82 -234t-142 -181t-200 -88q-18 0 -72 -4t-112 -4l-12 -200q-24 -26 -48 -35t-44 -5t-34 19t-16 39q14 32 8 91t-6 129zM178 856q0 -88 5 -175t11 -170t12 -155 h29t45 -1t46 -1h30q88 2 155 62t107 150t53 197t-3 204t-64 170t-128 95q-56 0 -106 -10t-90 -33t-65 -63t-31 -100q-6 -82 -6 -170z" />
<glyph unicode="&#xff;" horiz-adv-x="1064" d="M26 1068q0 32 8 63t50 31q22 0 33 -9t23 -31l396 -760l338 792q10 22 24 31t34 9q26 -2 40 -18t19 -40t4 -49t-7 -45l-588 -1520q-16 -28 -42 -41t-50 -12t-41 15t-17 38q36 138 95 293t117 301q-54 118 -102 215t-98 202t-107 231t-129 304zM190 1424q14 0 42 1t56 -5 t49 -21t21 -45q0 -14 -3 -31t-9 -32t-17 -25t-29 -10q-30 0 -50 18t-34 44t-20 55t-6 51zM474 1424q14 0 42 1t56 -5t49 -21t21 -45q0 -14 -3 -31t-9 -32t-17 -25t-29 -10q-30 0 -50 18t-34 44t-20 55t-6 51z" />
<glyph unicode="&#x152;" horiz-adv-x="1896" d="M46 458q0 66 14 169t42 219t72 233t105 210t138 152t173 59q82 0 144 -40t107 -106t75 -150t48 -171t26 -170t8 -145q0 -132 -46 -265t-131 -239t-205 -173t-266 -67q-88 0 -146 51t-93 126t-50 158t-15 149zM198 456q0 -62 7 -122t30 -106t65 -75t112 -29q94 2 174 46 t139 122t91 185t30 235q0 58 -2 128t-12 140t-30 136t-56 117t-91 82t-133 31q-44 0 -85 -55t-77 -140t-66 -189t-51 -203t-33 -181t-12 -122zM874 114l16 1312q4 18 67 33t158 28t207 23t214 17t179 11t103 4q20 0 44 -2t43 -9t32 -22t13 -41q0 -40 -38 -61t-102 -30 t-145 -9t-167 1t-170 1t-153 -9t-115 -28t-56 -57q6 -24 4 -56t-6 -69t-6 -79t6 -90q54 -4 125 -3t147 3t151 5t135 5q0 -62 -19 -96t-95 -56q-28 -6 -90 -8t-132 -2t-132 -1t-90 -3q2 -84 4 -177t0 -180t-7 -160t-15 -119q44 4 104 3t128 -4t140 -4t137 1t120 11t91 29 q40 0 58 -14t19 -37t-10 -49t-29 -50l-754 -76q-16 -2 -37 9t-39 29t-30 38t-8 38z" />
<glyph unicode="&#x153;" horiz-adv-x="1494" d="M92 509q2 81 17 173t44 184t75 163t109 110t145 27q148 0 229 -54t115 -146q22 48 51 85t70 62t97 39t132 14q92 0 155 -42t63 -142q0 -110 -43 -186t-114 -129t-159 -87t-178 -60q0 -10 -1 -38t-1 -38q12 -142 56 -219t103 -110t126 -33t124 13t95 26t40 5q10 -26 2 -56 t-41 -56t-97 -43t-164 -19q-84 0 -143 25t-100 67t-67 98t-42 120q-56 -104 -147 -169t-221 -55q-164 0 -243 91t-79 249q-10 50 -8 131zM246 527q-4 -53 4 -75q0 -52 2 -99t17 -84t48 -59t93 -22q64 0 117 37t95 94t70 125t44 132l12 132q0 4 1 7t1 7q-4 90 -27 151t-57 99 t-73 56t-73 22q-46 0 -87 -39t-74 -98t-57 -130t-38 -137t-18 -119zM898 726q0 -16 7 -36t31 -20q48 0 102 23t99 59t75 83t30 95q0 50 -10 85t-66 35q-70 0 -120 -26t-83 -71t-49 -104t-16 -123z" />
<glyph unicode="&#x178;" horiz-adv-x="1208" d="M72 1496q6 20 19 29t28 11t33 1t34 -3q48 -104 101 -211t116 -209t137 -195t164 -169q84 208 142 349t94 232t56 138t29 68t11 24t4 3q84 0 84 -82q0 -6 -2 -20t-2 -16l-544 -1508q0 -2 -6 -3t-10 -1q-46 0 -73 37t-23 81q2 18 16 61t33 98t40 117t38 117t28 97t9 58 q-90 116 -168 219t-146 208t-128 219t-114 250zM298 1578q14 0 42 1t56 -5t49 -21t21 -45q0 -14 -3 -31t-9 -32t-17 -25t-29 -10q-30 0 -50 18t-34 44t-20 55t-6 51zM582 1578q14 0 42 1t56 -5t49 -21t21 -45q0 -14 -3 -31t-9 -32t-17 -25t-29 -10q-30 0 -50 18t-34 44 t-20 55t-6 51z" />
<glyph unicode="&#x2c6;" horiz-adv-x="584" d="M68 1284l158 204q6 16 24 29t40 19t42 2t30 -20l192 -244q0 -46 -14 -68t-33 -29t-42 -3t-43 10q-34 40 -62 78t-62 84l-100 -140q-70 -44 -108 -25t-22 103z" />
<glyph unicode="&#x2dc;" horiz-adv-x="984" d="M38 1230q16 44 32 101t38 108t56 87t86 36q30 0 70 -5t91 -30t116 -76t145 -141q62 -30 89 -10t34 60t1 86t-6 70q10 20 30 30t42 8t40 -18t26 -48q4 -70 -3 -133t-34 -108t-77 -69t-132 -14q-50 6 -89 30t-71 55t-60 67t-57 65t-60 49t-69 20q-54 -22 -73 -58t-22 -73 t2 -68t-1 -43q-14 -26 -38 -37t-47 -7t-40 21t-19 45z" />
<glyph unicode="&#x2000;" horiz-adv-x="1459" />
<glyph unicode="&#x2001;" horiz-adv-x="2918" />
<glyph unicode="&#x2002;" horiz-adv-x="1459" />
<glyph unicode="&#x2003;" horiz-adv-x="2918" />
<glyph unicode="&#x2004;" horiz-adv-x="972" />
<glyph unicode="&#x2005;" horiz-adv-x="729" />
<glyph unicode="&#x2006;" horiz-adv-x="486" />
<glyph unicode="&#x2007;" horiz-adv-x="486" />
<glyph unicode="&#x2008;" horiz-adv-x="364" />
<glyph unicode="&#x2009;" horiz-adv-x="583" />
<glyph unicode="&#x200a;" horiz-adv-x="162" />
<glyph unicode="&#x2010;" horiz-adv-x="874" d="M56 804q0 18 11 26t26 11t29 3h22l548 -46q32 -6 58 -12t46 -18t31 -34t11 -58q-102 12 -167 19t-111 10t-84 4t-86 3t-118 5t-178 11q-4 2 -11 13t-13 23t-10 23t-4 17z" />
<glyph unicode="&#x2011;" horiz-adv-x="874" d="M56 804q0 18 11 26t26 11t29 3h22l548 -46q32 -6 58 -12t46 -18t31 -34t11 -58q-102 12 -167 19t-111 10t-84 4t-86 3t-118 5t-178 11q-4 2 -11 13t-13 23t-10 23t-4 17z" />
<glyph unicode="&#x2012;" horiz-adv-x="874" d="M56 804q0 18 11 26t26 11t29 3h22l548 -46q32 -6 58 -12t46 -18t31 -34t11 -58q-102 12 -167 19t-111 10t-84 4t-86 3t-118 5t-178 11q-4 2 -11 13t-13 23t-10 23t-4 17z" />
<glyph unicode="&#x2013;" horiz-adv-x="768" d="M92 746q2 16 6 34t9 34t5 22q128 2 190 3t90 1t36 -2t26 -3t61 -3t141 -2q32 -6 49 -13t25 -21t10 -38t2 -60q-102 12 -159 17t-93 6t-61 -1t-63 -2t-101 1t-171 9q-4 2 -2 18z" />
<glyph unicode="&#x2014;" horiz-adv-x="1424" d="M56 804q0 18 11 26t26 11t29 3h22q134 -16 229 -18t170 1t139 8t135 5t160 -8t213 -30q32 -6 58 -12t46 -18t31 -34t11 -58q-154 18 -305 24t-305 7t-311 3t-321 14q-4 2 -11 13t-13 23t-10 23t-4 17z" />
<glyph unicode="&#x2018;" horiz-adv-x="320" d="M72 1109q-2 51 18 108t66 115q10 14 31 20t42 5t38 -10t17 -25q-36 -50 -57 -93t-27 -84t6 -83t44 -90q0 -20 -24 -30t-74 4q-36 28 -57 70t-23 93z" />
<glyph unicode="&#x2019;" horiz-adv-x="320" d="M96 1304q0 14 16 23t36 10t39 -4t29 -19q44 -56 63 -110t17 -103t-21 -89t-53 -66q-48 -14 -71 -4t-23 28q30 46 41 86t6 79t-26 80t-53 89z" />
<glyph unicode="&#x201a;" horiz-adv-x="320" d="M60 310q0 14 16 23t37 10t41 -4t30 -19q44 -56 64 -110t18 -103t-22 -89t-54 -66q-50 -14 -73 -4t-23 28q30 46 42 86t6 79t-27 80t-55 89z" />
<glyph unicode="&#x201c;" horiz-adv-x="474" d="M38 1378q0 20 11 35t27 21t34 -1t32 -27l102 -364q-14 -36 -33 -47t-51 21zM280 1424q6 48 27 55t42 -4t32 -26t-3 -9l4 -31t10 -76t14 -97t14 -98t10 -77l4 -31q0 -10 -2 -17t-10 -9t-25 0t-49 10z" />
<glyph unicode="&#x201d;" horiz-adv-x="474" d="M54 1064l4 31t11 76t14 97t14 97t11 75l4 30q-16 -6 -4 9t33 26t43 4t26 -55l-68 -406q-64 -16 -76 -11t-12 27zM248 1076l106 362q14 20 33 26t35 1t27 -20t11 -35l-124 -360q-34 -32 -54 -21t-34 47z" />
<glyph unicode="&#x201e;" horiz-adv-x="474" d="M64 288q0 20 11 34t27 19t34 0t34 -25l106 -360q-16 -36 -35 -47t-53 21zM312 330q6 48 27 55t42 -4t33 -26t-4 -9l4 -30t11 -74t14 -96t14 -96t11 -75l4 -31q0 -22 -12 -27t-76 11z" />
<glyph unicode="&#x2022;" horiz-adv-x="440" d="M85 609q-5 35 5 57q14 34 51 51t74 11t66 -35t29 -89q0 -14 -6 -39t-16 -49t-24 -41t-32 -17q-44 2 -75 26t-49 57t-23 68z" />
<glyph unicode="&#x2026;" horiz-adv-x="852" d="M60 164q14 0 42 1t56 -5t49 -21t21 -45q0 -14 -3 -31t-9 -32t-17 -25t-29 -10q-30 0 -50 18t-34 44t-20 55t-6 51zM344 164q14 0 42 1t56 -5t49 -21t21 -45q0 -14 -3 -31t-9 -32t-17 -25t-29 -10q-30 0 -50 18t-34 44t-20 55t-6 51zM628 164q14 0 42 1t56 -5t49 -21 t21 -45q0 -14 -3 -31t-9 -32t-17 -25t-29 -10q-30 0 -50 18t-34 44t-20 55t-6 51z" />
<glyph unicode="&#x202f;" horiz-adv-x="583" />
<glyph unicode="&#x2039;" horiz-adv-x="1094" d="M34 424l9 9l21 21l25 25t21 19q24 20 74 62t113 94t133 110t133 110t113 92t74 60q40 32 83 40t91 8q0 -50 -37 -103t-95 -108t-130 -109t-142 -106t-129 -100t-93 -88h604q4 4 14 11t22 13t23 10t17 4q18 0 26 -13t11 -29t3 -32v-24q0 -46 -20 -68t-74 -22 q-38 12 -114 14t-170 1t-195 -1t-187 9t-148 30t-76 61z" />
<glyph unicode="&#x203a;" horiz-adv-x="1056" d="M54 1076q0 42 32 51t66 9q42 0 82 -12t79 -30t79 -39t80 -37q18 -6 56 -18t86 -27t102 -31t102 -31t87 -27t57 -16q54 -40 39 -91t-73 -108t-145 -121t-179 -131t-175 -135t-133 -136q-46 0 -75 15t-29 67v29t4 11t12 10t24 24q30 40 83 86t113 94t121 95t111 88t81 74 t31 53l-678 226q-40 14 -40 58z" />
<glyph unicode="&#x205f;" horiz-adv-x="729" />
<glyph unicode="&#x20ac;" horiz-adv-x="1340" d="M56 746q0 20 12 38t34 28l240 42q12 76 26 158t38 162t61 153t93 128t136 87t190 32q54 0 95 -29t72 -75t52 -105t33 -117t18 -112t6 -92q-66 0 -100 28t-52 70t-25 91t-16 91t-28 70t-59 28q-100 0 -170 -54t-117 -132t-71 -167t-32 -159q48 -12 94 -2t90 28t88 35 t90 17q24 0 40 -18t16 -42q0 -28 -31 -51t-77 -42t-101 -35t-101 -29t-77 -25t-31 -24l-4 -180q24 0 80 20t114 36t103 14t47 -44q0 -20 -9 -33t-31 -23q-16 -6 -58 -23t-90 -35t-92 -34t-62 -22q0 -66 7 -122t33 -96t79 -65t145 -31q84 0 152 40t122 102t95 136t71 140 q2 0 8 1t10 1q24 0 42 -16t18 -40q0 -94 -51 -180t-129 -152t-172 -105t-180 -39q-124 0 -199 30t-118 83t-62 126t-33 161q-16 2 -48 -9t-69 -24t-73 -20t-57 2t-23 41t28 98l216 52l16 210q-10 0 -40 -7t-63 -16t-63 -15t-40 -2q-30 8 -43 26t-13 38z" />
<glyph unicode="&#x2122;" horiz-adv-x="2382" d="M36 1452q0 46 35 72t75 26q102 0 200 -21t200 -21q100 0 172 3t137 7t135 7t166 3q0 -52 -13 -81t-39 -44t-62 -22t-84 -15q-30 -6 -83 -6t-112 1t-113 1t-84 -4q-18 -68 -32 -171t-23 -226t-15 -255t-10 -258t-7 -236t-5 -188q-2 -18 -22 -31t-43 -13t-44 16t-25 56 q6 166 16 327t17 322t10 324t-5 333q-10 2 -39 5t-67 6t-80 8t-76 15t-57 24t-23 36zM1024 72v22q2 46 10 147t18 229t20 269t20 269t17 228t11 148q-6 30 2 46t23 23t34 9t35 2q8 0 29 -1t27 -3q42 -92 79 -181t89 -158t127 -111t195 -42q76 0 129 43t93 109t70 141t61 141 t68 109t89 43q24 0 44 -5t30 -37q-28 -126 -36 -263t-7 -275t6 -273t4 -255t-13 -221t-46 -173q-30 -32 -56 -41t-45 2t-29 41t-8 76q16 136 28 261t21 248t12 250t1 269q-68 -136 -174 -220t-260 -84q-66 0 -141 13t-142 44t-118 82t-71 127l-96 -1026q-4 -52 -20 -65 t-50 -13q-28 0 -54 11t-26 45z" />
<glyph unicode="&#xe000;" horiz-adv-x="1150" d="M0 0v1150h1150v-1150h-1150z" />
<glyph unicode="&#xfb02;" horiz-adv-x="1122" d="M23 791q3 19 13 31t26 6l248 22q0 110 11 224t37 212t69 170t109 96q64 16 104 -13t64 -77t35 -99t15 -79q0 -24 -20 -32t-36 -8q-22 2 -37 30t-29 61t-30 58t-42 19q-28 -8 -52 -65t-39 -138t-16 -175t21 -174q58 0 120 8t125 19t126 19t121 8q6 -42 -16 -68t-62 -43 t-94 -26t-112 -15l-116 -12t-106 -16q-10 -110 -5 -209t15 -187t19 -165t9 -145q-4 -30 -19 -47t-36 -20t-43 10t-38 43q-16 74 -20 157t-5 171t-3 184t-10 198l-284 -6q-12 12 -16 33t-1 40zM914 1470q-4 22 14 43t41 30t45 0t26 -45q10 -316 17 -549t12 -398t9 -269 t7 -164t5 -84t6 -26q-24 -20 -51 -27t-50 -4t-38 16t-15 35q4 138 0 318t-10 374l-12 388t-6 362z" />
</font>
</defs>
</svg>
